<svg width="512" height="512" viewBox="0 0 512 512" fill="none" xmlns="http://www.w3.org/2000/svg">
<circle cx="256" cy="256" r="239.322" stroke="#FEA110" stroke-width="33.355"/>
<path d="M218.119 338.128H177.086C133.202 338.128 115.608 319.987 112.296 310.916C99.7864 277.009 125.749 258.704 142.301 252.94C143.719 252.446 144.715 251.129 144.779 249.628C147.475 186.201 187.138 161.264 206.889 156.717C286.957 135.366 320.589 191.481 328.387 225.312C328.83 227.234 330.745 228.461 332.683 228.094C376.984 219.699 397.298 254.647 402.054 273.927C402.1 274.115 402.129 274.307 402.141 274.501C405.733 329.871 352.977 339.996 326.102 338.128H299.322M218.119 338.128H299.322M218.119 338.128V310.485M299.322 338.128V286.296C299.322 284.388 297.775 282.841 295.866 282.841H288.092M229.781 282.841H221.574C219.666 282.841 218.119 284.388 218.119 286.296V310.485M229.781 282.841C228.485 267.579 232.545 237.143 259.152 237.488C270.814 237.488 292.929 246.559 288.092 282.841M229.781 282.841H288.092M218.119 310.485L266.495 310.916" stroke="#FEA110" stroke-width="13.8218"/>
<path d="M171.902 227.122C176.366 214.596 191.08 187.644 214.232 180.042" stroke="#FEA110" stroke-width="8.6386" stroke-linecap="round"/>
</svg>
