<svg width="98" height="98" viewBox="0 0 98 98" fill="none" xmlns="http://www.w3.org/2000/svg">
<path d="M87.34 9.02C88.97 9.92 89.52 11.29 89.48 13.15C89.38 17.58 89.45 22.02 89.45 26.46C89.45 29.12 88.38 30.18 85.68 30.18C81.16 30.19 76.63 30.18 72.11 30.18C69.28 30.18 68.29 29.2 68.28 26.41C68.28 24.62 68.28 22.82 68.28 20.91C63.95 20.91 59.72 20.91 55.38 20.91C55.38 25.62 55.38 30.33 55.38 35.15C56.73 35.15 58 35.14 59.27 35.15C61.8 35.19 63.26 36.64 63.31 39.17C63.33 40.34 63.31 41.52 63.31 42.83C65.08 42.83 66.7 42.87 68.31 42.8C68.65 42.78 69.04 42.41 69.29 42.11C70.37 40.74 71.82 40.2 73.34 40.68C74.8 41.14 75.77 42.51 75.75 44.09C75.73 45.59 74.79 46.89 73.36 47.38C71.87 47.89 70.4 47.33 69.28 45.99C68.95 45.6 68.34 45.27 67.83 45.23C66.4 45.13 64.95 45.19 63.41 45.19C63.41 46.55 63.41 47.79 63.41 49.19C63.94 49.19 64.4 49.19 64.87 49.19C69.13 49.19 73.39 49.19 77.65 49.19C79.85 49.19 79.99 49.33 79.99 51.48C79.99 56.53 79.99 61.58 79.99 66.64C79.99 67.11 79.99 67.59 79.99 68.25C81.99 68.25 83.87 68.24 85.74 68.25C88.34 68.26 89.43 69.34 89.43 71.92C89.44 76.53 89.44 81.15 89.43 85.76C89.43 88.25 88.29 89.42 85.83 89.42C81.17 89.43 76.52 89.43 71.86 89.42C69.37 89.42 68.27 88.3 68.26 85.79C68.25 83.77 68.27 81.75 68.25 79.73C68.24 78.95 68.42 78.26 69.32 78.22C70.29 78.17 70.57 78.86 70.57 79.71C70.57 81.69 70.61 83.66 70.56 85.64C70.53 86.72 70.93 87.1 72.02 87.09C76.54 87.04 81.07 87.05 85.59 87.09C86.64 87.1 87.09 86.82 87.08 85.68C87.03 81.11 87.04 76.54 87.08 71.97C87.09 70.95 86.74 70.56 85.71 70.56C81.1 70.59 76.48 70.59 71.87 70.56C70.91 70.55 70.51 70.94 70.56 71.89C70.6 72.68 70.69 73.5 70.5 74.25C70.38 74.72 69.85 75.32 69.41 75.42C68.62 75.59 68.26 74.96 68.25 74.19C68.24 73.18 68.21 72.17 68.26 71.16C68.34 69.44 69.47 68.31 71.21 68.26C72.88 68.21 74.55 68.25 76.22 68.24C76.65 68.24 77.07 68.24 77.55 68.24C77.55 62.6 77.55 57.13 77.55 51.6C72.79 51.6 68.11 51.6 63.28 51.6C63.28 53.99 63.28 56.31 63.28 58.62C63.28 61.95 61.96 63.27 58.67 63.28C57.58 63.28 56.49 63.28 55.25 63.28C55.25 64.94 55.21 66.47 55.28 68C55.29 68.29 55.68 68.63 55.96 68.85C57.36 69.9 57.92 71.37 57.44 72.89C56.99 74.32 55.55 75.38 54.05 75.37C52.58 75.36 51.2 74.36 50.74 72.98C50.22 71.41 50.77 69.93 52.21 68.83C52.51 68.6 52.84 68.18 52.86 67.83C52.93 66.39 52.89 64.94 52.89 63.39C50.75 63.39 48.71 63.39 46.51 63.39C46.49 63.83 46.45 64.3 46.45 64.76C46.45 69.02 46.45 73.28 46.45 77.54C46.45 79.4 46.21 79.63 44.3 79.64C40.13 79.64 35.95 79.64 31.78 79.64C31.3 79.64 30.83 79.64 30.17 79.64C30.17 81.67 30.17 83.59 30.17 85.51C30.17 88.39 29.16 89.41 26.32 89.41C21.97 89.41 17.62 89.34 13.27 89.44C11.38 89.49 9.93 89 9 87.3C9 81.68 9 76.05 9 70.43C9.8 68.79 11.07 68.17 12.92 68.21C17.48 68.31 22.05 68.23 26.62 68.24C29.08 68.25 30.15 69.31 30.17 71.75C30.18 73.54 30.17 75.33 30.17 77.18C34.88 77.18 39.41 77.18 43.98 77.18C43.98 72.52 43.98 67.94 43.98 63.28C42.3 63.28 40.72 63.3 39.15 63.27C36.63 63.22 35.18 61.75 35.14 59.21C35.12 57.99 35.14 56.77 35.14 55.58C33.76 55.35 33.76 55.35 33.07 56.26C32.08 57.56 30.6 58.05 29.11 57.57C27.64 57.1 26.66 55.72 26.69 54.17C26.72 52.74 27.66 51.39 28.97 50.93C30.49 50.39 32.13 50.83 33.04 52.22C33.57 53.04 34.15 53.22 35.04 52.93C35.04 51.33 35.04 49.74 35.04 48.05C34.46 48.05 33.98 48.05 33.51 48.05C29.3 48.05 25.08 48.05 20.87 48.05C18.52 48.05 18.46 47.99 18.46 45.58C18.46 40.97 18.46 36.36 18.46 31.75C18.46 31.28 18.46 30.81 18.46 30.18C16.51 30.18 14.72 30.09 12.94 30.2C11.1 30.31 9.81 29.64 9.02 27.99C9.02 22.37 9.02 16.74 9.02 11.12C9.72 10.42 10.43 9.71 11.13 9.01C16.75 9.01 22.38 9.01 28 9.01C29.74 9.82 30.33 11.19 30.21 13.07C30.1 14.86 30.18 16.67 30.19 18.47C30.19 19.3 30.18 20.16 29.06 20.18C27.96 20.2 27.86 19.36 27.86 18.52C27.86 16.59 27.84 14.65 27.87 12.72C27.88 11.82 27.63 11.34 26.6 11.35C21.94 11.39 17.29 11.38 12.63 11.35C11.76 11.35 11.35 11.62 11.35 12.56C11.38 17.26 11.37 21.96 11.35 26.66C11.35 27.51 11.68 27.86 12.51 27.86C17.25 27.85 22 27.85 26.74 27.86C27.51 27.86 27.86 27.5 27.85 26.73C27.84 25.81 27.76 24.86 27.94 23.98C28.02 23.58 28.67 23.02 29.06 23.03C29.43 23.04 29.99 23.62 30.11 24.05C30.29 24.7 30.17 25.44 30.17 26.14C30.17 29.29 29.27 30.18 26.09 30.18C24.35 30.18 22.62 30.18 20.91 30.18C20.91 35.47 20.91 40.53 20.91 45.56C25.7 45.56 30.38 45.56 35.14 45.56C35.14 43.57 35.14 41.68 35.14 39.8C35.14 36.46 36.44 35.15 39.75 35.15C41.18 35.15 42.6 35.15 44.09 35.15C44.09 33.78 44.16 32.63 44.06 31.5C44.02 31.03 43.7 30.47 43.33 30.17C42.04 29.14 41.46 27.69 41.92 26.23C42.4 24.69 43.66 23.74 45.24 23.72C46.83 23.7 48.13 24.63 48.64 26.14C49.14 27.63 48.59 29.14 47.21 30.18C46.92 30.4 46.52 30.72 46.5 31.01C46.42 32.35 46.47 33.7 46.47 35.06C48.7 35.06 50.74 35.06 52.91 35.06C52.91 34.45 52.91 33.93 52.91 33.41C52.91 29.02 52.9 24.63 52.92 20.23C52.92 18.74 53.21 18.46 54.7 18.45C58.43 18.44 62.17 18.45 65.9 18.45C66.63 18.45 67.36 18.45 68.26 18.45C68.26 16.51 68.35 14.71 68.24 12.93C68.13 11.09 68.8 9.8 70.45 9C76.09 9.02 81.71 9.02 87.34 9.02ZM49.38 37.52C46.08 37.52 42.79 37.51 39.49 37.52C37.94 37.52 37.54 37.92 37.54 39.47C37.53 45.97 37.53 52.47 37.54 58.98C37.54 60.52 37.95 60.93 39.49 60.94C45.99 60.95 52.49 60.95 59 60.94C60.54 60.94 60.95 60.53 60.95 58.98C60.96 52.48 60.96 45.98 60.95 39.47C60.95 37.92 60.54 37.52 59 37.52C55.79 37.51 52.58 37.52 49.38 37.52ZM78.89 11.37C76.57 11.37 74.24 11.4 71.92 11.35C70.94 11.33 70.59 11.71 70.6 12.66C70.62 17.31 70.62 21.96 70.6 26.61C70.6 27.5 70.95 27.87 71.85 27.87C76.5 27.85 81.15 27.85 85.8 27.87C86.75 27.87 87.12 27.53 87.11 26.55C87.08 21.94 87.07 17.34 87.11 12.73C87.12 11.7 86.76 11.33 85.73 11.35C83.45 11.41 81.17 11.37 78.89 11.37ZM19.6 87.07C21.92 87.07 24.25 87.04 26.57 87.09C27.55 87.11 27.9 86.72 27.89 85.78C27.87 81.13 27.87 76.48 27.89 71.83C27.89 70.93 27.53 70.57 26.63 70.58C21.98 70.6 17.33 70.6 12.68 70.58C11.73 70.58 11.36 70.93 11.37 71.9C11.4 76.51 11.41 81.11 11.37 85.72C11.36 86.75 11.72 87.12 12.75 87.1C15.04 87.03 17.32 87.07 19.6 87.07ZM31.89 54.22C31.12 53.69 30.64 53.11 30.24 53.16C29.82 53.21 29.17 53.87 29.17 54.26C29.17 54.65 29.84 55.29 30.27 55.33C30.67 55.37 31.14 54.77 31.89 54.22ZM72.34 45.67C72.83 44.87 73.38 44.37 73.31 43.98C73.23 43.56 72.55 42.93 72.18 42.96C71.78 43 71.17 43.67 71.14 44.1C71.11 44.5 71.74 44.93 72.34 45.67ZM45.27 28.89C45.83 28.1 46.38 27.67 46.39 27.22C46.39 26.85 45.72 26.14 45.41 26.18C44.96 26.23 44.29 26.77 44.22 27.18C44.16 27.58 44.74 28.08 45.27 28.89ZM54.17 70.14C53.6 70.95 53 71.43 53.05 71.82C53.1 72.25 53.7 72.81 54.15 72.92C54.42 72.98 55.13 72.29 55.16 71.9C55.2 71.47 54.68 71 54.17 70.14Z" fill="black"/>
<path d="M78.9 84.7C77.63 84.7 76.35 84.72 75.08 84.69C73.66 84.66 73.01 84.09 72.99 82.72C72.95 80.13 72.95 77.54 72.99 74.95C73.01 73.53 73.59 72.98 75.04 72.96C77.59 72.93 80.13 72.92 82.68 72.96C84.09 72.98 84.7 73.6 84.71 74.98C84.74 77.53 84.74 80.07 84.71 82.62C84.7 84.05 84.04 84.66 82.58 84.69C81.36 84.71 80.13 84.7 78.9 84.7ZM82.26 82.3C82.26 79.99 82.26 77.68 82.26 75.28C80.15 75.28 78.14 75.26 76.14 75.31C75.86 75.32 75.35 75.67 75.34 75.87C75.28 78 75.3 80.13 75.3 82.31C77.69 82.3 79.91 82.3 82.26 82.3Z" fill="black"/>
<path d="M13.77 19.6C13.77 18.28 13.75 16.96 13.78 15.65C13.81 14.44 14.46 13.77 15.67 13.76C18.3 13.74 20.94 13.74 23.58 13.76C24.79 13.77 25.49 14.41 25.5 15.62C25.53 18.3 25.53 20.98 25.5 23.66C25.49 24.81 24.83 25.47 23.68 25.48C21 25.51 18.32 25.51 15.64 25.48C14.43 25.47 13.79 24.78 13.77 23.56C13.76 22.24 13.77 20.92 13.77 19.6ZM16.18 23.16C18.37 23.16 20.5 23.17 22.63 23.13C22.82 23.13 23.16 22.77 23.16 22.57C23.2 20.44 23.18 18.31 23.18 16.17C20.75 16.17 18.49 16.17 16.17 16.17C16.18 18.5 16.18 20.75 16.18 23.16Z" fill="black"/>
<path d="M42.3 42.24C42.3 46.97 42.3 51.49 42.3 56.11C46.92 56.11 51.5 56.11 56.15 56.11C56.15 51.52 56.15 46.97 56.15 42.24C55.51 42.24 54.86 42.39 54.34 42.2C53.86 42.03 53.51 41.48 53.1 41.1C53.49 40.7 53.82 40.06 54.27 39.96C55.11 39.77 56.02 39.85 56.89 39.92C57.97 40.02 58.56 40.71 58.57 41.77C58.59 46.73 58.6 51.7 58.57 56.66C58.56 57.87 57.85 58.55 56.66 58.56C51.7 58.59 46.73 58.59 41.77 58.56C40.57 58.55 39.92 57.8 39.91 56.61C39.89 51.69 39.88 46.77 39.91 41.85C39.92 40.57 40.6 39.93 41.91 39.91C44.24 39.87 46.57 39.9 48.89 39.9C49.68 39.9 50.35 40.14 50.37 41.03C50.39 41.99 49.72 42.27 48.86 42.26C46.72 42.23 44.58 42.24 42.3 42.24Z" fill="black"/>
<path d="M78.92 13.7501C80.19 13.7501 81.47 13.7201 82.74 13.7601C84.05 13.7901 84.69 14.4101 84.71 15.7101C84.74 18.3001 84.74 20.8901 84.71 23.4801C84.69 24.8101 84.1 25.4501 82.79 25.4801C80.16 25.5201 77.52 25.5101 74.89 25.4901C73.68 25.4801 73 24.8201 72.99 23.6001C72.97 20.9701 72.95 18.3301 72.99 15.7001C73.01 14.3801 73.64 13.8001 74.97 13.7601C76.29 13.7201 77.6 13.7501 78.92 13.7501ZM75.3 16.1501C75.3 18.3601 75.28 20.4101 75.33 22.4601C75.34 22.7101 75.76 23.1401 76 23.1501C78.09 23.2001 80.17 23.1801 82.26 23.1801C82.26 20.7301 82.26 18.4401 82.26 16.1601C79.92 16.1501 77.7 16.1501 75.3 16.1501Z" fill="black"/>
<path d="M13.77 78.74C13.77 77.51 13.75 76.28 13.78 75.05C13.81 73.62 14.36 72.99 15.75 72.97C18.34 72.93 20.93 72.93 23.52 72.97C24.94 72.99 25.49 73.57 25.51 75.03C25.55 77.58 25.55 80.12 25.51 82.67C25.49 84.08 24.87 84.68 23.48 84.7C20.93 84.73 18.39 84.73 15.84 84.7C14.41 84.69 13.8 84.04 13.78 82.57C13.75 81.28 13.77 80.01 13.77 78.74ZM23.19 82.27C23.19 80.1 23.2 78.01 23.17 75.92C23.17 75.7 22.86 75.31 22.69 75.31C20.53 75.27 18.36 75.28 16.21 75.28C16.21 77.74 16.21 80 16.21 82.26C18.55 82.27 20.8 82.27 23.19 82.27Z" fill="black"/>
</svg>
