<svg width="512" height="512" viewBox="0 0 512 512" fill="none" xmlns="http://www.w3.org/2000/svg">
<circle cx="256" cy="256" r="239.322" stroke="#FEA110" stroke-width="33.355"/>
<path d="M362.238 262.177C362.037 296.422 334.302 323.714 299.964 323.473C266.123 323.233 238.932 295.219 239.242 260.928C239.545 227.436 267.559 200.26 301.509 200.524C334.985 200.78 362.44 228.654 362.238 262.177ZM300.756 314.029C329.111 314.107 352.624 290.804 352.779 262.487C352.926 233.644 329.701 210.007 301.167 209.976C272.106 209.937 248.81 233.031 248.717 261.944C248.616 290.586 271.958 313.952 300.756 314.029Z" fill="#FEA110"/>
<path d="M228.549 219.427C232.126 219.427 235.463 219.427 239.017 219.427C239.017 222.547 239.017 225.534 239.017 228.824C234.144 228.824 229.255 228.98 224.374 228.762C221.914 228.654 220.859 226.675 220.168 224.425C214.736 206.662 209.242 188.923 203.771 171.175C200.473 160.474 197.113 149.781 193.924 139.041C193.373 137.187 192.628 136.488 190.695 136.605C188.065 136.768 185.419 136.643 182.625 136.643C182.625 133.485 182.625 130.575 182.625 127.316C187.622 127.316 192.721 126.998 197.734 127.518C199.138 127.665 200.908 130.102 201.451 131.817C208.45 154.034 215.256 176.305 222.116 198.56C224.219 205.42 226.337 212.265 228.549 219.427Z" fill="#FEA110"/>
<path d="M239.173 295.11C239.173 298.416 239.173 301.264 239.173 304.57C236.519 304.57 233.896 304.717 231.296 304.523C229.123 304.36 228.278 305.16 227.649 307.224C219.144 335.144 210.538 363.034 201.956 390.931C200.303 396.301 199.635 396.805 194.071 396.805C190.525 396.805 186.979 396.79 183.44 396.774C183.254 396.774 183.068 396.697 182.672 396.603C182.672 393.67 182.672 390.683 182.672 387.338C185.295 387.338 187.933 387.183 190.541 387.385C192.628 387.548 193.381 386.748 193.971 384.808C202.491 356.896 211.105 329.006 219.695 301.117C221.418 295.522 221.969 295.103 227.758 295.103C231.475 295.11 235.199 295.11 239.173 295.11Z" fill="#FEA110"/>
<path d="M400.091 266.81C390.585 266.81 381.367 266.81 371.93 266.81C371.93 263.628 371.93 260.648 371.93 257.343C381.173 257.343 390.461 257.343 400.091 257.343C400.091 254.223 400.045 251.406 400.099 248.582C400.192 243.747 403.731 241.722 407.937 244.197C415.394 248.582 422.813 253.028 430.2 257.537C434.228 259.997 434.266 263.962 430.27 266.406C422.813 270.977 415.309 275.486 407.758 279.901C403.746 282.252 400.208 280.149 400.107 275.486C400.037 272.661 400.091 269.829 400.091 266.81ZM419.266 261.983C415.852 259.942 412.895 258.181 409.776 256.311C409.776 260.276 409.776 263.807 409.776 267.539C410.381 267.26 410.738 267.136 411.064 266.942C413.64 265.398 416.217 263.83 419.266 261.983Z" fill="#FEA110"/>
<path d="M229.651 276.192C229.651 279.482 229.651 282.4 229.651 285.651C225.235 285.651 220.936 285.744 216.637 285.604C214.829 285.55 214.107 286.155 213.572 287.878C209.723 300.372 205.75 312.827 201.808 325.289C200.357 329.875 199.394 330.574 194.645 330.581C190.719 330.589 186.792 330.581 182.656 330.581C182.656 327.431 182.656 324.451 182.656 321.122C185.403 321.122 188.135 321.006 190.851 321.161C192.674 321.269 193.38 320.587 193.908 318.879C197.734 306.479 201.676 294.125 205.587 281.748C207.154 276.781 207.961 276.184 213.13 276.184C218.546 276.192 223.955 276.192 229.651 276.192Z" fill="#FEA110"/>
<path d="M229.705 238.346C229.705 241.668 229.705 244.515 229.705 247.806C224.972 247.806 220.292 247.806 215.605 247.806C207.364 247.806 207.372 247.806 204.935 240.077C201.265 228.452 197.532 216.851 193.963 205.196C193.388 203.318 192.542 202.72 190.665 202.829C188.042 202.984 185.396 202.868 182.617 202.868C182.617 199.686 182.617 196.768 182.617 193.556C187.661 193.556 192.76 193.268 197.78 193.75C199.131 193.881 200.838 196.171 201.381 197.808C205.556 210.402 209.545 223.059 213.425 235.747C214.069 237.865 215.031 238.478 217.134 238.393C221.239 238.23 225.352 238.346 229.705 238.346Z" fill="#FEA110"/>
<path d="M156.249 148.47C147.147 148.369 139.821 140.88 139.883 131.731C139.945 122.683 147.55 115.241 156.614 115.365C165.771 115.49 173.034 122.924 172.987 132.104C172.933 141.136 165.336 148.563 156.249 148.47ZM156.459 124.84C152.563 124.84 149.343 128.069 149.358 131.972C149.374 135.852 152.664 139.064 156.56 138.995C160.331 138.933 163.458 135.79 163.513 132.018C163.575 128.131 160.339 124.84 156.459 124.84Z" fill="#FEA110"/>
<path d="M156.427 181.589C165.708 181.62 173.088 189.132 172.979 198.436C172.879 207.345 165.382 214.701 156.427 214.693C147.309 214.678 139.899 207.267 139.883 198.141C139.86 189.054 147.364 181.55 156.427 181.589ZM156.451 205.218C160.346 205.211 163.559 201.952 163.512 198.056C163.466 194.285 160.338 191.126 156.567 191.064C152.671 191.002 149.397 194.184 149.35 198.079C149.311 201.959 152.555 205.218 156.451 205.218Z" fill="#FEA110"/>
<path d="M156.621 278.551C147.488 278.628 139.984 271.295 139.883 262.185C139.782 253.09 147.193 245.501 156.241 245.447C165.414 245.385 172.855 252.656 172.987 261.812C173.111 270.868 165.677 278.473 156.621 278.551ZM156.567 254.922C152.672 254.859 149.397 258.041 149.358 261.944C149.311 265.824 152.555 269.084 156.451 269.076C160.222 269.068 163.396 265.98 163.512 262.208C163.629 258.32 160.447 254.984 156.567 254.922Z" fill="#FEA110"/>
<path d="M156.241 342.408C147.139 342.307 139.821 334.811 139.883 325.662C139.945 316.606 147.55 309.172 156.622 309.304C165.778 309.435 173.042 316.869 172.987 326.05C172.933 335.082 165.328 342.509 156.241 342.408ZM163.513 325.894C163.536 322.007 160.284 318.747 156.404 318.778C152.501 318.809 149.312 322.069 149.358 325.964C149.405 329.728 152.54 332.863 156.327 332.925C160.215 332.995 163.489 329.79 163.513 325.894Z" fill="#FEA110"/>
<path d="M139.883 392.08C139.86 383 147.364 375.496 156.427 375.527C165.592 375.559 172.948 382.907 172.987 392.08C173.026 401.128 165.514 408.647 156.435 408.632C147.309 408.616 139.906 401.213 139.883 392.08ZM156.505 399.157C160.393 399.118 163.59 395.828 163.512 391.932C163.435 388.161 160.276 385.033 156.513 385.002C152.617 384.971 149.373 388.176 149.358 392.08C149.342 395.96 152.609 399.195 156.505 399.157Z" fill="#FEA110"/>
<path d="M182.594 266.523C182.594 263.403 182.594 260.493 182.594 257.42C198.246 257.42 213.766 257.42 229.534 257.42C229.534 260.338 229.534 263.325 229.534 266.523C214.014 266.523 198.424 266.523 182.594 266.523Z" fill="#FEA110"/>
<path d="M314.933 290.377C314.933 293.683 314.933 296.531 314.933 299.604C311.837 299.604 308.849 299.604 305.536 299.604C305.536 296.67 305.536 293.675 305.536 290.532C302.3 290.532 299.382 290.532 296.138 290.532C296.138 293.466 296.138 296.461 296.138 299.642C292.833 299.642 289.845 299.642 286.632 299.642C286.632 296.663 286.632 293.745 286.632 290.439C282.52 290.284 278.376 290.85 275.163 287.646C271.989 284.479 272.323 280.514 272.339 276.285C269.227 276.285 266.231 276.285 263.065 276.285C263.065 272.979 263.065 269.992 263.065 266.787C266.092 266.787 269.009 266.787 272.137 266.787C272.137 263.59 272.137 260.602 272.137 257.389C269.211 257.389 266.293 257.389 263.127 257.389C263.127 254.192 263.127 251.205 263.127 247.891C266.03 247.891 269.017 247.891 272.269 247.891C272.424 243.646 271.881 239.51 275.163 236.313C278.353 233.201 282.341 233.644 286.431 233.566C286.431 230.462 286.431 227.544 286.431 224.386C289.628 224.386 292.615 224.386 295.929 224.386C295.929 227.312 295.929 230.307 295.929 233.45C299.165 233.45 302.083 233.45 305.326 233.45C305.326 230.524 305.326 227.529 305.326 224.347C308.632 224.347 311.62 224.347 314.832 224.347C314.832 227.319 314.832 230.237 314.832 233.543C318.937 233.729 323.089 233.108 326.294 236.329C329.444 239.502 329.157 243.452 329.126 247.697C332.238 247.697 335.233 247.697 338.399 247.697C338.399 251.003 338.399 253.99 338.399 257.195C335.388 257.195 332.463 257.195 329.336 257.195C329.336 260.392 329.336 263.38 329.336 266.694C332.323 266.694 335.319 266.694 338.446 266.694C338.446 269.929 338.446 272.847 338.446 276.091C335.451 276.091 332.455 276.091 329.204 276.091C329.064 280.343 329.576 284.472 326.302 287.661C323.112 290.757 319.139 290.416 314.933 290.377ZM319.55 243.313C306.793 243.313 294.346 243.313 281.969 243.313C281.969 255.923 281.969 268.292 281.969 280.731C294.571 280.731 307.01 280.731 319.55 280.731C319.55 268.176 319.55 255.806 319.55 243.313Z" fill="#FEA110"/>
</svg>
