<svg width="512" height="512" viewBox="0 0 512 512" fill="none" xmlns="http://www.w3.org/2000/svg">
<circle cx="256" cy="256" r="239.322" stroke="#FEA110" stroke-width="33.355"/>
<path d="M399.594 251.495C276.15 119.528 158.691 194.392 112.502 251.475C111.009 253.32 111.167 256 112.737 257.781C233.18 394.473 352.425 316.973 399.935 257.899C401.455 256.009 401.251 253.266 399.594 251.495Z" stroke="#FEA110" stroke-width="15"/>
<path d="M317.5 242.5C317.5 273.463 290.279 299.5 255.5 299.5C220.721 299.5 193.5 273.463 193.5 242.5C193.5 211.537 220.721 185.5 255.5 185.5C290.279 185.5 317.5 211.537 317.5 242.5Z" stroke="#FEA110" stroke-width="15"/>
<path d="M293.351 219.092C295.537 222.522 296.507 226.139 296.417 229.141C296.327 232.159 295.205 234.278 293.528 235.347C291.851 236.415 289.456 236.538 286.682 235.344C283.923 234.157 281.055 231.75 278.869 228.32C276.684 224.89 275.714 221.274 275.803 218.272C275.893 215.253 277.016 213.134 278.693 212.066C280.37 210.997 282.764 210.875 285.538 212.068C288.297 213.255 291.165 215.662 293.351 219.092Z" stroke="#FEA110" stroke-width="5"/>
</svg>
