<svg width="512" height="512" viewBox="0 0 512 512" fill="none" xmlns="http://www.w3.org/2000/svg">
<circle cx="256" cy="256" r="239.322" stroke="#FEA110" stroke-width="33.355"/>
<path d="M407 214.666C405.556 216.601 404.053 218.501 402.698 220.501C402.248 221.17 402.029 222.087 401.964 222.916C401.822 224.78 401.928 226.662 401.774 228.526C401.1 236.598 395.105 242.256 386.985 242.54C386.589 242.551 386.192 242.599 385.802 242.551C382.659 242.167 380.493 242.836 378.783 246.12C376.629 250.251 372.486 252.358 367.776 252.535C362.165 252.748 356.537 252.736 350.927 252.529C348.625 252.446 346.353 251.588 343.761 251.02C339.831 256.903 333.659 258.092 326.841 257.838C320.84 257.613 314.757 258.098 308.868 257.228C305.164 256.684 302.554 256.465 299.814 259.536C297.381 262.264 293.629 262.779 289.978 262.773C282.095 262.767 274.207 262.738 266.324 262.785C262.323 262.809 258.784 261.595 255.435 258.855C251.215 262.927 245.889 262.862 240.522 262.791C234.414 262.708 228.301 262.69 222.188 262.797C216.666 262.892 211.908 261.43 208.304 256.979C207.896 256.476 206.807 256.228 206.085 256.311C202.41 256.731 198.759 257.53 195.078 257.761C190.858 258.021 186.603 257.755 182.366 257.838C176.205 257.956 170.891 256.281 167.121 250.825C159.629 253.973 151.788 252.429 144.094 252.565C138.306 252.665 133.88 249.777 131.211 244.646C130.323 242.936 129.323 242.463 127.554 242.522C125.399 242.593 123.174 242.64 121.079 242.214C114.398 240.859 109.735 235.45 109.237 228.526C108.947 224.49 109.628 220.253 105.551 217.43C104.769 216.891 104.503 215.613 104 214.672C104 199.481 104 184.289 104 169.092C106.705 162.783 111.741 158.966 117.682 155.96C127.447 151.018 137.886 148.237 148.491 145.994C174.897 140.413 201.712 138.336 228.597 137.182C268.082 135.49 307.418 137.265 346.536 143.082C360.964 145.23 375.256 148.118 388.779 153.829C396.36 157.031 403.562 160.86 407 169.092C407 184.283 407 199.475 407 214.666ZM208.423 198.676C218.613 182.253 243.682 183.538 255.494 200.137C267.33 183.514 292.416 182.295 302.483 198.528C313.916 186.384 333.493 185.621 342.908 199.202C358.845 188.266 368.267 188.757 378.635 200.747C381.86 199.978 384.873 198.699 387.879 198.711C390.856 198.723 393.833 200.031 396.91 200.794C396.91 192.965 396.525 184.774 397.04 176.637C397.401 170.92 394.88 167.879 390.199 165.582C380.742 160.937 370.658 158.286 360.449 156.084C330.546 149.639 300.187 147.456 269.697 146.781C241.972 146.166 214.287 147.142 186.71 150.249C169.666 152.172 152.687 154.705 136.259 159.783C129.826 161.771 123.701 164.825 117.552 167.642C114.942 168.837 113.948 171.21 114.007 174.229C114.155 182.413 114.055 190.604 114.066 198.788C114.066 199.611 114.167 200.433 114.232 201.362C121.239 197.622 123.352 197.61 132.022 201.108C142.869 188.787 152.202 188.29 168.05 199.202C178.602 184.555 198.25 187.556 208.423 198.676ZM215.163 228.739C215.163 234.752 215.122 240.758 215.175 246.771C215.21 250.801 216.95 252.6 220.904 252.63C228.786 252.689 236.663 252.683 244.546 252.63C248.428 252.606 250.345 250.92 250.369 247.15C250.434 236.805 250.588 226.455 250.192 216.122C249.842 206.985 244.043 200.197 235.19 197.877C222.348 194.515 214.589 203.54 215.098 212.778C215.4 218.081 215.163 223.413 215.163 228.739ZM295.837 228.999C295.813 228.999 295.795 228.999 295.772 228.999C295.772 222.892 295.896 216.779 295.736 210.677C295.571 204.221 290.558 198.622 284.238 197.474C272.727 195.391 261.382 203.883 260.85 215.566C260.365 226.088 260.566 236.639 260.625 247.179C260.643 250.931 262.584 252.6 266.484 252.63C274.266 252.683 282.048 252.677 289.83 252.63C294.133 252.606 295.801 250.854 295.831 246.434C295.866 240.622 295.837 234.811 295.837 228.999ZM174.69 226.614C174.69 231.438 174.649 236.267 174.702 241.09C174.755 245.877 176.566 247.671 181.342 247.706C186.952 247.747 192.568 247.736 198.179 247.706C203.144 247.682 205.008 245.877 205.032 240.977C205.073 233.296 205.073 225.614 205.032 217.933C205.002 213.281 203.807 209.02 200.676 205.398C196.303 200.345 188.52 198.025 182.75 200.179C177.223 202.244 174.708 206.695 174.696 214.494C174.678 218.536 174.684 222.578 174.69 226.614ZM336.31 226.537C336.298 226.537 336.286 226.537 336.268 226.537C336.268 221.714 336.274 216.885 336.263 212.062C336.263 211.47 336.191 210.884 336.12 210.293C335.552 205.179 332.013 201.108 327.048 199.842C317.692 197.457 307.134 204.44 306.43 214.199C305.755 223.507 305.974 232.887 306.039 242.232C306.063 245.96 308.229 247.653 312.307 247.694C318.112 247.753 323.924 247.742 329.735 247.7C334.475 247.665 336.251 245.848 336.304 241.013C336.351 236.19 336.31 231.367 336.31 226.537ZM139.437 223.863C139.431 223.863 139.425 223.863 139.419 223.863C139.419 228.194 139.366 232.526 139.437 236.852C139.496 240.658 141.289 242.475 145.047 242.534C149.669 242.605 154.297 242.605 158.919 242.534C162.564 242.48 164.47 240.735 164.517 237.137C164.612 229.952 164.712 222.762 164.44 215.589C164.127 207.405 157.682 201.593 149.497 201.658C143.846 201.7 139.591 205.789 139.46 211.464C139.354 215.595 139.437 219.732 139.437 223.863ZM371.593 224.164C371.593 220.128 371.593 216.092 371.593 212.062C371.593 211.766 371.581 211.47 371.563 211.174C371.285 206.049 367.438 202.061 362.402 201.676C354.129 201.043 346.95 207.026 346.595 215.287C346.288 222.555 346.4 229.846 346.483 237.131C346.524 240.729 348.43 242.48 352.075 242.534C356.697 242.605 361.325 242.605 365.947 242.534C369.711 242.48 371.504 240.664 371.563 236.858C371.64 232.627 371.587 228.396 371.593 224.164ZM129.069 232.45C129.069 226.39 129.14 220.708 129.009 215.033C128.98 213.843 128.429 212.5 127.713 211.524C126.329 209.636 124.192 207.878 122.008 208.991C120.594 209.713 119.481 212.186 119.328 213.968C118.955 218.359 119.109 222.809 119.245 227.23C119.345 230.526 121.186 232.266 124.429 232.438C125.896 232.515 127.364 232.45 129.069 232.45ZM382.038 232.467C383.186 232.467 384.334 232.479 385.488 232.467C390.004 232.42 391.743 230.745 391.797 226.253C391.844 222.028 392.004 217.779 391.655 213.583C391.519 211.956 390.394 209.452 389.211 209.109C387.743 208.683 385.565 209.807 384.05 210.807C383.056 211.464 382.168 213.056 382.133 214.264C381.931 220.217 382.038 226.182 382.038 232.467Z" fill="#FEA110"/>
<path d="M140.212 270.07C149.622 263.146 162.73 262.104 171.068 268.265C174.311 270.662 176.72 271.041 180.638 270.354C186.479 269.33 192.639 269.478 198.593 269.987C204.458 270.484 208.92 274.059 212.323 279.19C218.962 273.573 226.822 274.769 234.45 274.585C242.185 274.396 249.706 274.775 255.494 281.403C261.152 274.994 268.413 274.343 275.982 274.591C278.645 274.68 281.308 274.627 283.971 274.603C289.227 274.55 294.168 275.532 298.322 278.894C298.612 278.817 298.885 278.829 298.968 278.71C303.779 271.893 310.425 269.165 318.639 269.614C324.018 269.91 329.504 269.046 334.677 271.402C335.174 271.626 336.197 271.23 336.724 270.804C347.087 262.454 359.875 262.104 370.178 269.614C373.522 268.342 376.493 266.626 379.659 266.117C388.861 264.637 396.401 271.064 396.886 280.373C396.981 282.143 396.969 283.924 396.91 285.699C396.792 289.102 396.75 292.168 399.751 294.943C401.319 296.393 401.804 299.595 401.845 302.015C402.047 313.946 401.798 325.888 401.988 337.825C402.112 345.536 397.644 349.963 391.672 353.442C380.345 360.047 367.811 363.201 355.105 365.509C311.034 373.51 266.59 375.232 221.927 372.907C202.025 371.871 182.2 370.178 162.547 366.787C150.308 364.675 138.117 362.177 126.707 357.1C122.263 355.123 118.067 352.407 114.126 349.531C110.528 346.909 109.018 342.95 109.042 338.393C109.107 326.261 109.078 314.123 109.06 301.992C109.054 298.257 110.036 295.038 113.161 292.641C113.771 292.174 114.043 290.984 114.078 290.114C114.179 287.356 114.096 284.593 114.078 281.829C114.049 275.361 116.528 270.206 122.5 267.389C128.323 264.637 133.986 265.306 139.117 269.384C139.419 269.62 139.768 269.792 140.212 270.07ZM119.168 301.601C119.168 313.881 119.239 325.604 119.12 337.334C119.091 340.352 120.067 342.678 122.725 343.867C128.637 346.501 134.489 349.489 140.674 351.27C168.417 359.26 196.971 362.207 225.668 363.041C248.316 363.704 271.017 363.308 293.671 362.568C317.343 361.799 340.813 358.786 363.864 353.105C372.273 351.034 380.624 348.667 388.122 344.056C390.69 342.476 391.915 340.429 391.874 337.263C391.726 326.415 391.82 315.561 391.809 304.708C391.809 303.879 391.69 303.051 391.59 301.731C386.891 305.448 382.032 305.312 376.812 303.672C376.304 311.543 373.214 317.769 366.237 321.497C359.313 325.202 352.2 324.267 345.068 321.716C341.677 329.794 335.902 334.795 327.362 335.86C319.284 336.866 311.792 334.901 305.211 329.469C303.37 334.777 300.193 338.535 295.423 340.458C286.516 344.051 277.42 344.471 268.36 340.849C263.116 338.754 259.051 335.097 255.755 330.759C255.411 330.812 255.281 330.788 255.234 330.848C254.896 331.203 254.565 331.564 254.257 331.948C246.99 340.985 237.367 344.098 226.141 343.05C216.992 342.198 209.239 339.115 205.718 329.445C199.043 335.049 191.491 336.878 183.36 335.813C174.838 334.694 169.181 329.528 165.884 321.669C158.652 324.314 151.634 325.131 144.775 321.473C137.798 317.757 134.732 311.514 134.182 303.69C128.79 305.465 123.873 305.282 119.168 301.601ZM295.831 309.336C295.837 309.336 295.849 309.336 295.855 309.336C295.855 304.708 295.884 300.08 295.849 295.452C295.795 288.593 292.162 284.865 285.297 284.735C280.574 284.646 275.846 284.64 271.123 284.735C264.383 284.871 260.696 288.516 260.595 295.192C260.501 301.199 260.56 307.205 260.584 313.212C260.601 317.656 261.761 321.728 264.424 325.368C270.709 333.96 282.013 334.659 290.635 331.546C294.15 330.279 295.884 327.622 295.843 323.811C295.795 318.988 295.831 314.159 295.831 309.336ZM250.647 304.832C250.529 304.826 250.411 304.826 250.292 304.82C250.292 300.98 250.493 297.121 250.239 293.298C249.949 288.877 246.771 285.315 242.362 285.06C235.988 284.693 229.562 284.676 223.188 285.066C218.566 285.35 215.287 289.232 215.234 293.878C215.116 304.027 215.21 314.183 215.21 324.338C215.21 327.676 216.785 330.297 219.85 331.167C223.579 332.226 227.532 332.99 231.384 332.996C240.486 333.002 248.02 326.954 249.825 318.077C250.695 313.78 250.411 309.253 250.647 304.832ZM204.753 299.547C204.866 299.547 204.972 299.547 205.085 299.547C205.085 296.198 205.209 292.836 205.055 289.493C204.789 283.557 200.913 279.847 194.989 279.752C191.444 279.693 187.887 279.669 184.342 279.752C179.004 279.882 175.004 283.368 174.856 288.718C174.613 297.577 174.655 306.46 174.939 315.319C175.099 320.308 178.649 324.101 183.478 325.468C193.196 328.214 203.434 321.687 204.671 311.644C205.162 307.667 204.753 303.583 204.753 299.547ZM336.168 301.944C336.215 301.944 336.263 301.944 336.31 301.944C336.31 298.003 336.31 294.061 336.31 290.12C336.31 289.824 336.292 289.528 336.268 289.232C335.825 283.409 332.108 279.852 326.291 279.746C322.941 279.687 319.592 279.693 316.242 279.74C309.993 279.823 306.122 283.557 305.992 289.877C305.862 296.18 305.797 302.495 306.004 308.791C306.347 319.39 313.538 326.078 324.131 325.936C330.7 325.847 335.677 321.45 336.109 314.934C336.399 310.626 336.168 306.276 336.168 301.944ZM144.361 294.31C144.367 294.31 144.372 294.31 144.378 294.31C144.378 297.559 144.284 300.808 144.402 304.051C144.574 308.732 147.385 312.934 151.521 313.33C154.995 313.662 158.641 312.839 162.132 312.147C163.99 311.774 164.736 310.206 164.677 308.081C164.511 302.376 164.393 296.654 164.707 290.966C164.89 287.593 165.458 284.078 166.736 280.989C167.772 278.474 167.186 276.905 165.174 276.367C161.647 275.426 157.936 274.722 154.303 274.722C148.213 274.727 144.538 278.746 144.378 284.871C144.295 288.013 144.361 291.162 144.361 294.31ZM366.639 294.221C366.645 294.221 366.651 294.221 366.657 294.221C366.657 291.162 366.924 288.078 366.568 285.06C366.308 282.8 365.728 280.29 364.462 278.479C361 273.544 348.708 272.94 344.565 277.331C344.027 277.905 343.909 279.19 344.068 280.06C344.761 283.794 346.075 287.463 346.335 291.215C346.731 296.908 346.406 302.648 346.471 308.365C346.483 309.277 346.607 310.584 347.193 311.028C351.158 314.035 355.715 314.692 360.343 313.123C364.509 311.709 366.462 308.318 366.616 303.992C366.728 300.731 366.639 297.476 366.639 294.221ZM124.192 285.096C124.186 285.096 124.186 285.096 124.18 285.096C124.18 286.569 123.819 288.161 124.269 289.481C124.879 291.286 125.891 294.056 127.116 294.275C128.79 294.576 131.063 293.168 132.619 291.919C133.584 291.144 133.969 289.339 134.122 287.942C134.371 285.611 134.3 283.238 134.223 280.882C134.123 277.882 132.312 276.053 129.501 275.923C126.577 275.787 124.494 277.604 124.216 280.675C124.086 282.143 124.192 283.628 124.192 285.096ZM387.051 285.563C386.932 285.557 386.82 285.546 386.701 285.54C386.701 283.675 386.903 281.788 386.654 279.959C386.317 277.539 384.683 276.171 382.233 275.976C379.979 275.793 377.499 276.58 377.321 278.746C376.99 282.835 377.339 287.037 377.925 291.12C378.091 292.268 379.937 293.428 381.263 294.103C383.725 295.352 385.524 294.588 386.252 291.937C386.808 289.895 386.808 287.694 387.051 285.563Z" fill="#FEA110"/>
</svg>
