<svg width="512" height="512" viewBox="0 0 512 512" fill="none" xmlns="http://www.w3.org/2000/svg">
<circle cx="256" cy="256" r="239.322" stroke="#FEA110" stroke-width="33.355"/>
<g clip-path="url(#clip0_1094_11796)">
<path d="M351.795 396.895C287.799 396.895 223.809 396.895 159.814 396.895C159.681 396.773 159.571 396.585 159.421 396.536C148.798 393.136 144.37 387.106 144.37 376.007C144.37 295.557 144.37 215.106 144.37 134.656C144.37 122.164 152.169 114.387 164.694 114.387C225.456 114.381 286.219 114.381 346.981 114.387C359.461 114.387 367.233 122.197 367.233 134.727C367.238 160.286 367.233 185.85 367.233 211.408C367.233 212.353 367.233 213.304 367.233 214.249C367.515 214.382 367.797 214.515 368.079 214.642C368.681 213.835 369.195 212.945 369.897 212.237C377.552 204.554 385.086 196.733 392.957 189.277C404.028 178.78 421.821 183.816 426.082 198.452C426.281 199.138 426.569 199.79 426.812 200.464C426.812 202.67 426.812 204.881 426.812 207.086C425.336 213.464 421.136 217.964 416.647 222.402C400.834 238.05 385.18 253.858 369.4 269.534C367.852 271.076 367.178 272.574 367.183 274.79C367.255 308.9 367.244 343.009 367.227 377.118C367.222 386.913 362.087 393.678 352.707 396.386C352.392 396.48 352.105 396.724 351.795 396.895ZM177.673 147.567C177.673 219.766 177.673 291.71 177.673 363.792C178.872 363.792 179.878 363.792 180.878 363.792C198.162 363.792 215.446 363.781 232.736 363.797C236.732 363.803 239.253 365.986 239.236 369.33C239.22 372.669 236.705 374.819 232.692 374.819C212.832 374.83 192.972 374.835 173.113 374.819C168.425 374.813 166.447 372.801 166.447 368.053C166.441 293.108 166.441 218.157 166.447 143.212C166.447 138.469 168.431 136.469 173.124 136.463C183.974 136.446 194.824 136.458 205.669 136.458C206.647 136.458 207.631 136.458 208.653 136.458C208.653 132.61 208.653 129.09 208.653 125.419C207.537 125.419 206.625 125.419 205.713 125.419C192.104 125.419 178.496 125.414 164.893 125.419C158.194 125.425 155.408 128.238 155.408 135.004C155.408 215.377 155.408 295.75 155.408 376.123C155.408 383.088 158.144 385.857 165.026 385.857C225.523 385.857 286.02 385.857 346.516 385.857C353.448 385.857 356.211 383.104 356.211 376.201C356.217 346.132 356.211 316.057 356.211 285.989C356.211 285.121 356.211 284.253 356.211 283.131C353.243 284.458 350.723 285.779 348.064 286.718C345.825 287.509 345.101 288.686 345.112 291.124C345.217 316.594 345.179 342.069 345.179 367.545C345.179 373.006 343.366 374.824 337.916 374.824C318.515 374.83 299.114 374.824 279.718 374.824C278.889 374.824 278.055 374.868 277.242 374.758C274.434 374.382 272.378 372.033 272.389 369.286C272.395 366.533 274.462 364.201 277.275 363.852C278.182 363.736 279.11 363.792 280.028 363.792C297.036 363.786 314.049 363.792 331.056 363.792C332.029 363.792 333.002 363.792 333.953 363.792C333.953 340.068 333.953 316.704 333.953 293.307C333.577 293.357 333.383 293.346 333.229 293.412C328.442 295.523 323.666 297.657 318.874 299.768C315.337 301.327 313.131 301.183 311.268 299.171C309.135 296.867 309.577 294.385 310.765 291.754C315.292 281.711 319.858 271.678 324.164 261.541C326.071 257.053 328.431 253.024 332.234 249.939C333.715 248.74 334.201 247.331 334.196 245.413C334.135 213.78 334.152 182.147 334.152 150.508C334.152 149.541 334.152 148.579 334.152 147.667C323.473 147.667 313.209 147.667 302.861 147.667C302.801 148.363 302.751 148.9 302.707 149.436C301.911 158.152 294.775 165.05 286.003 165.1C265.867 165.216 245.731 165.205 225.6 165.1C217.862 165.062 211.301 159.628 209.416 152.105C209.046 150.63 208.869 149.104 208.593 147.562C198.251 147.567 188.058 147.567 177.673 147.567ZM220.078 125.519C219.99 126.066 219.913 126.331 219.913 126.597C219.901 133.489 219.868 140.382 219.907 147.275C219.935 151.669 222.345 154.095 226.755 154.101C246.145 154.128 265.535 154.128 284.92 154.101C289.292 154.095 291.68 151.641 291.707 147.214C291.751 140.597 291.724 133.981 291.707 127.36C291.707 126.757 291.558 126.155 291.475 125.519C267.625 125.519 243.945 125.519 220.078 125.519ZM345.179 236.209C345.394 236.303 345.615 236.403 345.831 236.497C348.783 233.479 351.823 230.544 354.625 227.399C355.487 226.432 356.139 224.878 356.145 223.596C356.228 193.909 356.217 164.221 356.206 134.528C356.206 128.365 353.254 125.425 347.086 125.419C333.212 125.408 319.333 125.414 305.459 125.419C304.591 125.419 303.718 125.491 302.944 125.53C302.944 129.349 302.944 132.804 302.944 136.452C304.122 136.452 305.117 136.452 306.117 136.452C316.685 136.452 327.254 136.446 337.822 136.452C343.449 136.452 345.184 138.204 345.184 143.903C345.184 173.684 345.184 203.465 345.184 233.247C345.179 234.236 345.179 235.226 345.179 236.209ZM389.547 208.783C372.937 225.404 356.466 241.881 340.387 257.965C344.421 262.011 348.611 266.206 352.37 269.965C368.631 253.704 385.097 237.238 401.502 220.832C397.683 216.985 393.609 212.879 389.547 208.783ZM410.053 213.183C413.696 209.999 416.935 206.749 415.398 201.393C414.37 197.811 411.96 195.595 408.301 194.942C403.216 194.041 400.137 197.081 397.49 200.453C401.707 204.731 405.814 208.888 410.053 213.183ZM342.183 277.316C339.165 274.215 336.329 271.297 333.334 268.224C331.034 273.386 328.724 278.582 326.115 284.447C331.99 281.838 337.203 279.527 342.183 277.316Z" fill="#FEA110"/>
<path d="M215.811 226.946C210.394 226.946 204.978 226.962 199.561 226.94C195.006 226.924 192.939 224.912 192.928 220.435C192.906 209.325 192.906 198.209 192.928 187.099C192.939 182.622 195.001 180.61 199.566 180.604C210.582 180.588 221.604 180.588 232.62 180.604C237.296 180.61 239.253 182.616 239.258 187.381C239.275 198.309 239.275 209.236 239.258 220.164C239.253 225.006 237.274 226.935 232.338 226.946C226.827 226.957 221.317 226.946 215.811 226.946ZM228.17 191.808C219.995 191.808 212.064 191.808 204.149 191.808C204.149 199.917 204.149 207.843 204.149 215.692C212.279 215.692 220.205 215.692 228.17 215.692C228.17 207.666 228.17 199.867 228.17 191.808Z" fill="#FEA110"/>
<path d="M192.917 264.471C192.917 258.96 192.9 253.449 192.923 247.939C192.939 243.373 194.94 241.306 199.412 241.295C210.522 241.273 221.632 241.273 232.741 241.295C237.224 241.306 239.242 243.362 239.253 247.922C239.269 258.943 239.269 269.959 239.253 280.981C239.247 285.652 237.23 287.625 232.482 287.63C221.554 287.647 210.632 287.647 199.705 287.63C194.863 287.625 192.934 285.646 192.923 280.721C192.906 275.31 192.917 269.893 192.917 264.471ZM228.104 252.526C219.951 252.526 212.025 252.526 204.171 252.526C204.171 260.657 204.171 268.589 204.171 276.46C212.257 276.46 220.117 276.46 228.104 276.46C228.104 268.445 228.104 260.585 228.104 252.526Z" fill="#FEA110"/>
<path d="M215.983 348.337C210.383 348.337 204.779 348.37 199.179 348.326C195.039 348.293 192.939 346.176 192.928 341.997C192.9 330.793 192.9 319.589 192.928 308.386C192.939 304.063 195.028 302.001 199.39 301.99C210.499 301.968 221.609 301.968 232.719 301.99C237.224 302.001 239.247 304.047 239.253 308.59C239.275 319.612 239.269 330.628 239.253 341.649C239.247 346.331 237.23 348.31 232.509 348.326C226.999 348.354 221.493 348.337 215.983 348.337ZM204.149 313.145C204.149 321.292 204.149 329.224 204.149 337.078C212.274 337.078 220.205 337.078 228.082 337.078C228.082 328.991 228.082 321.126 228.082 313.145C220.073 313.145 212.207 313.145 204.149 313.145Z" fill="#FEA110"/>
<path d="M277.043 208.656C283.798 201.852 290.193 195.407 296.599 188.973C300.17 185.386 303.298 184.866 305.874 187.398C308.521 190.006 308.068 193.102 304.492 196.678C297.03 204.145 289.568 211.618 282.095 219.075C278.541 222.618 275.755 222.612 272.207 219.086C268.691 215.593 265.176 212.094 261.688 208.573C258.853 205.704 258.604 202.437 260.981 200.072C263.391 197.673 266.558 197.922 269.482 200.763C270.736 201.979 271.975 203.206 273.18 204.466C274.384 205.721 275.54 207.02 277.043 208.656Z" fill="#FEA110"/>
<path d="M276.966 269.407C283.77 262.564 290.165 256.125 296.571 249.696C297.284 248.983 297.975 248.231 298.782 247.629C300.855 246.076 303.746 246.22 305.647 247.883C307.665 249.652 308.129 252.532 306.675 254.87C306.2 255.638 305.548 256.312 304.901 256.959C297.317 264.565 289.723 272.165 282.117 279.754C278.547 283.319 275.761 283.325 272.223 279.815C268.708 276.321 265.182 272.834 261.699 269.302C258.842 266.405 258.587 263.177 260.942 260.801C263.335 258.385 266.569 258.573 269.432 261.453C271.953 263.968 274.335 266.61 276.966 269.407Z" fill="#FEA110"/>
<path d="M255.896 363.808C258.941 363.864 261.434 366.506 261.301 369.535C261.174 372.464 258.637 374.857 255.713 374.808C252.679 374.758 250.18 372.11 250.313 369.081C250.44 366.146 252.972 363.759 255.896 363.808Z" fill="#FEA110"/>
</g>
<path d="M296.194 338.068C296.194 341.071 296.2 343.76 296.194 346.443C296.178 351.563 294.987 352.781 289.986 352.792C285.034 352.798 280.083 352.821 275.132 352.781C271.365 352.753 269.911 351.288 269.821 347.516C269.754 344.624 269.742 341.728 269.686 338.837C269.681 338.68 269.529 338.522 269.288 338.068C266.38 338.068 263.32 338.096 260.261 338.062C256.702 338.023 255.085 336.479 255.046 332.948C254.99 327.531 254.978 322.108 255.051 316.69C255.096 313.39 256.808 311.762 260.143 311.7C263.214 311.644 266.284 311.689 269.81 311.689C269.81 308.551 269.782 305.609 269.815 302.667C269.86 298.406 271.286 297.026 275.592 297.014C280.729 297.003 285.871 296.986 291.007 297.02C294.566 297.042 296.099 298.547 296.178 302.14C296.245 305.205 296.194 308.275 296.194 311.689C299.501 311.689 302.56 311.661 305.614 311.694C309.258 311.739 310.93 313.373 310.964 317.016C311.015 322.248 311.009 327.48 310.964 332.712C310.93 336.535 309.342 338.04 305.418 338.068C302.448 338.084 299.484 338.068 296.194 338.068ZM264.028 329.063C264.471 329.181 264.651 329.265 264.836 329.271C267.643 329.299 270.45 329.282 273.251 329.338C277.052 329.417 278.5 330.876 278.539 334.638C278.567 337.686 278.545 340.734 278.545 343.85C281.688 343.85 284.445 343.85 287.448 343.85C287.448 340.785 287.437 337.905 287.448 335.025C287.465 330.708 288.807 329.372 293.185 329.333C296.06 329.305 298.928 329.327 301.909 329.327C301.909 326.251 301.909 323.5 301.909 320.53C298.951 320.53 296.161 320.542 293.371 320.53C288.852 320.508 287.459 319.144 287.448 314.703C287.437 311.835 287.448 308.966 287.448 306.047C284.321 306.047 281.565 306.047 278.545 306.047C278.545 308.169 278.545 310.111 278.545 312.059C278.545 320.053 278.073 320.53 270.208 320.53C268.182 320.53 266.155 320.53 264.028 320.53C264.028 323.55 264.028 326.228 264.028 329.063Z" fill="#FEA110"/>
<defs>
<clipPath id="clip0_1094_11796">
<rect width="283" height="283" fill="white" transform="translate(144 114)"/>
</clipPath>
</defs>
</svg>
