<svg width="512" height="512" viewBox="0 0 512 512" fill="none" xmlns="http://www.w3.org/2000/svg">
<circle cx="256" cy="256" r="239.322" stroke="#FEA110" stroke-width="33.355"/>
<path d="M332.084 262.335L334.726 255.335L334.716 255.331L334.706 255.327L332.084 262.335ZM333.844 263.033L330.969 269.941L330.984 269.947L330.999 269.953L333.844 263.033ZM344.78 261.393L339.637 255.958L339.636 255.96L344.78 261.393ZM357.26 261.393L362.405 255.96L362.403 255.958L357.26 261.393ZM364.454 268.204L369.6 262.772L369.598 262.77L364.454 268.204ZM364.454 280.02L359.307 274.589L359.303 274.593L364.454 280.02ZM362.721 290.375L355.917 293.487L355.921 293.495L355.925 293.504L362.721 290.375ZM363.452 292.041L356.545 294.919L356.547 294.923L363.452 292.041ZM363.459 330.699L370.351 333.611L370.36 333.59L370.369 333.569L363.459 330.699ZM362.721 332.365L355.952 329.178L355.936 329.212L355.92 329.246L362.721 332.365ZM364.454 342.719L369.6 337.288L369.598 337.286L364.454 342.719ZM364.454 354.536L369.598 359.969L369.6 359.968L364.454 354.536ZM357.26 361.347L352.116 355.913L352.115 355.914L357.26 361.347ZM354.396 363.16L351.663 356.194L351.663 356.194L354.396 363.16ZM347.637 363.16L350.37 356.194L350.37 356.194L347.637 363.16ZM344.773 361.347L349.918 355.914L349.917 355.913L344.773 361.347ZM333.844 359.713L336.686 366.635L336.695 366.631L336.704 366.627L333.844 359.713ZM332.084 360.398L329.502 353.375L329.482 353.383L329.462 353.39L332.084 360.398ZM291.247 360.405L288.597 367.402L288.617 367.41L288.636 367.417L291.247 360.405ZM289.487 359.707L292.397 352.813L292.365 352.8L292.332 352.786L289.487 359.707ZM278.551 361.347L283.694 366.782L283.696 366.78L278.551 361.347ZM266.071 361.347L260.926 366.78L260.928 366.782L266.071 361.347ZM258.877 354.536L253.731 359.968L253.733 359.969L258.877 354.536ZM258.877 342.719L264.024 348.151L264.028 348.147L258.877 342.719ZM260.603 332.365L253.768 335.41L253.786 335.45L253.804 335.489L260.603 332.365ZM260.55 332.246L267.384 329.201L267.384 329.201L260.55 332.246ZM259.872 330.699L252.962 333.569L252.971 333.59L252.98 333.611L259.872 330.699ZM259.872 292.034L252.967 289.154L252.962 289.164L259.872 292.034ZM260.603 290.368L253.807 287.238L253.805 287.242L260.603 290.368ZM258.877 280.014L253.731 285.445L253.733 285.447L258.877 280.014ZM258.877 268.197L253.733 262.764L253.731 262.766L258.877 268.197ZM266.071 261.386L260.928 255.951L260.926 255.953L266.071 261.386ZM278.551 261.386L273.409 266.822L273.414 266.826L278.551 261.386ZM289.487 263.026L292.326 269.949L292.33 269.948L289.487 263.026ZM291.247 262.328L288.636 255.316L288.617 255.324L288.597 255.331L291.247 262.328ZM333.061 253.858C333.061 244.728 325.369 238.017 316.751 238.017V252.982C317.256 252.982 317.628 253.17 317.849 253.38C318.064 253.583 318.097 253.751 318.097 253.858H333.061ZM333.061 253.864V253.858H318.097V253.864H333.061ZM334.706 255.327C334.026 255.073 333.556 254.689 333.3 254.364C333.063 254.064 333.061 253.897 333.061 253.864H318.097C318.097 261.499 323.519 267.119 329.462 269.343L334.706 255.327ZM336.718 256.125C336.059 255.851 335.395 255.587 334.726 255.335L329.441 269.335C329.954 269.529 330.464 269.731 330.969 269.941L336.718 256.125ZM339.636 255.96C339.47 256.116 339.159 256.308 338.613 256.383C338.048 256.461 337.357 256.388 336.689 256.113L330.999 269.953C336.88 272.371 344.537 271.927 349.924 266.826L339.636 255.96ZM351.02 251.465C346.824 251.465 342.723 253.038 339.637 255.958L349.922 266.828C350.147 266.615 350.535 266.429 351.02 266.429V251.465ZM362.403 255.958C359.317 253.038 355.216 251.465 351.02 251.465V266.429C351.505 266.429 351.893 266.615 352.118 266.828L362.403 255.958ZM369.598 262.77L362.405 255.96L352.116 266.826L359.309 273.637L369.598 262.77ZM374.519 274.112C374.519 269.777 372.698 265.707 369.6 262.772L359.307 273.635C359.518 273.835 359.555 274.016 359.555 274.112H374.519ZM369.6 285.452C372.698 282.517 374.519 278.447 374.519 274.112H359.555C359.555 274.208 359.518 274.389 359.307 274.589L369.6 285.452ZM369.526 287.262C369.305 286.779 369.27 286.337 369.317 286.03C369.359 285.757 369.458 285.586 369.605 285.447L359.303 274.593C353.797 279.819 353.194 287.534 355.917 293.487L369.526 287.262ZM370.359 289.163C370.09 288.519 369.81 287.88 369.518 287.246L355.925 293.504C356.14 293.972 356.347 294.444 356.545 294.919L370.359 289.163ZM372.405 290.717C371.727 290.717 370.806 290.235 370.357 289.159L356.547 294.923C359.062 300.948 365.042 305.682 372.405 305.682V290.717ZM388.716 306.558C388.716 297.428 381.024 290.717 372.405 290.717V305.682C372.911 305.682 373.282 305.871 373.504 306.081C373.718 306.284 373.751 306.451 373.751 306.558H388.716ZM388.716 316.181V306.558H373.751V316.181H388.716ZM372.405 332.022C381.024 332.022 388.716 325.311 388.716 316.181H373.751C373.751 316.289 373.718 316.456 373.504 316.659C373.282 316.869 372.911 317.058 372.405 317.058V332.022ZM370.369 333.569C370.81 332.506 371.725 332.022 372.405 332.022V317.058C365.043 317.058 359.057 321.791 356.549 327.828L370.369 333.569ZM369.491 335.552C369.809 334.876 370.097 334.213 370.351 333.611L356.566 327.787C356.348 328.304 356.148 328.761 355.952 329.178L369.491 335.552ZM369.598 337.286C369.448 337.145 369.352 336.977 369.312 336.712C369.266 336.413 369.298 335.973 369.523 335.484L355.92 329.246C353.186 335.209 353.789 342.926 359.309 348.153L369.598 337.286ZM374.519 348.628C374.519 344.292 372.698 340.223 369.6 337.288L359.307 348.151C359.518 348.351 359.555 348.532 359.555 348.628H374.519ZM369.6 359.968C372.698 357.033 374.519 352.963 374.519 348.628H359.555C359.555 348.724 359.518 348.905 359.307 349.105L369.6 359.968ZM362.405 366.78L369.598 359.969L359.309 349.103L352.116 355.913L362.405 366.78ZM357.128 370.125C359.078 369.36 360.874 368.23 362.406 366.779L352.115 355.914C352.007 356.017 351.857 356.118 351.663 356.194L357.128 370.125ZM351.017 371.278C353.104 371.278 355.18 370.89 357.128 370.125L351.663 356.194C351.469 356.27 351.248 356.314 351.017 356.314V371.278ZM344.905 370.125C346.853 370.89 348.929 371.278 351.017 371.278V356.314C350.785 356.314 350.564 356.27 350.37 356.194L344.905 370.125ZM339.627 366.779C341.159 368.23 342.956 369.36 344.905 370.125L350.37 356.194C350.176 356.118 350.026 356.017 349.918 355.914L339.627 366.779ZM336.704 366.627C337.359 366.356 338.044 366.282 338.61 366.36C339.158 366.435 339.468 366.628 339.629 366.78L349.917 355.913C344.541 350.823 336.874 350.362 330.984 352.799L336.704 366.627ZM334.665 367.421C335.347 367.17 336.026 366.906 336.686 366.635L331.001 352.792C330.507 352.995 330.003 353.191 329.502 353.375L334.665 367.421ZM333.061 368.875C333.061 368.836 333.065 368.668 333.301 368.368C333.556 368.044 334.026 367.66 334.706 367.406L329.462 353.39C323.516 355.615 318.097 361.237 318.097 368.875H333.061ZM316.751 384.716C325.369 384.716 333.061 378.005 333.061 368.875H318.097C318.097 368.982 318.064 369.15 317.849 369.353C317.628 369.563 317.256 369.752 316.751 369.752V384.716ZM306.58 384.716H316.751V369.752H306.58V384.716ZM290.27 368.875C290.27 378.005 297.962 384.716 306.58 384.716V369.752C306.075 369.752 305.703 369.563 305.482 369.353C305.267 369.15 305.234 368.982 305.234 368.875H290.27ZM288.636 367.417C289.31 367.668 289.777 368.048 290.031 368.37C290.266 368.668 290.27 368.836 290.27 368.875H305.234C305.234 361.238 299.815 355.611 293.859 353.393L288.636 367.417ZM286.578 366.6C287.278 366.896 287.966 367.163 288.597 367.402L293.897 353.408C293.346 353.199 292.852 353.005 292.397 352.813L286.578 366.6ZM283.696 366.78C283.861 366.623 284.172 366.431 284.718 366.356C285.283 366.279 285.974 366.352 286.642 366.627L292.332 352.786C286.451 350.368 278.794 350.813 273.407 355.913L283.696 366.78ZM272.311 371.275C276.507 371.275 280.608 369.702 283.694 366.782L273.409 355.912C273.184 356.124 272.796 356.31 272.311 356.31V371.275ZM260.928 366.782C264.014 369.702 268.115 371.275 272.311 371.275V356.31C271.826 356.31 271.438 356.124 271.213 355.912L260.928 366.782ZM253.733 359.969L260.926 366.78L271.215 355.913L264.022 349.103L253.733 359.969ZM248.812 348.628C248.812 352.963 250.633 357.033 253.731 359.968L264.024 349.105C263.813 348.905 263.776 348.724 263.776 348.628H248.812ZM253.731 337.288C250.633 340.223 248.812 344.292 248.812 348.628H263.776C263.776 348.531 263.813 348.351 264.024 348.151L253.731 337.288ZM253.804 335.489C254.025 335.97 254.059 336.409 254.013 336.713C253.972 336.984 253.873 337.153 253.726 337.292L264.028 348.147C269.534 342.921 270.14 335.2 267.402 329.241L253.804 335.489ZM253.715 335.291L253.768 335.41L267.438 329.32L267.384 329.201L253.715 335.291ZM252.98 333.611C253.232 334.208 253.493 334.793 253.715 335.291L267.384 329.201C267.153 328.681 266.951 328.228 266.765 327.787L252.98 333.611ZM250.926 332.022C251.606 332.022 252.521 332.506 252.962 333.569L266.782 327.828C264.274 321.791 258.288 317.058 250.926 317.058V332.022ZM234.615 316.181C234.615 325.311 242.307 332.022 250.926 332.022V317.058C250.42 317.058 250.049 316.869 249.827 316.659C249.613 316.456 249.58 316.289 249.58 316.181H234.615ZM234.615 306.552V316.181H249.58V306.552H234.615ZM250.926 290.711C242.307 290.711 234.615 297.422 234.615 306.552H249.58C249.58 306.445 249.613 306.277 249.827 306.074C250.049 305.864 250.42 305.675 250.926 305.675V290.711ZM252.962 289.164C252.521 290.227 251.606 290.711 250.926 290.711V305.675C258.288 305.675 264.274 300.942 266.782 294.905L252.962 289.164ZM253.805 287.242C253.514 287.875 253.234 288.512 252.967 289.154L266.778 294.915C266.977 294.438 267.184 293.964 267.401 293.494L253.805 287.242ZM253.733 285.447C253.883 285.589 253.978 285.756 254.018 286.018C254.063 286.314 254.031 286.751 253.807 287.238L267.399 293.498C270.148 287.529 269.543 279.808 264.022 274.58L253.733 285.447ZM248.812 274.105C248.812 278.441 250.633 282.51 253.731 285.445L264.024 274.582C263.813 274.382 263.776 274.202 263.776 274.105H248.812ZM253.731 262.766C250.633 265.701 248.812 269.77 248.812 274.105H263.776C263.776 274.009 263.813 273.828 264.024 273.629L253.731 262.766ZM260.926 255.953L253.733 262.764L264.022 273.63L271.215 266.82L260.926 255.953ZM272.311 251.458C268.115 251.458 264.014 253.032 260.928 255.951L271.213 266.822C271.438 266.609 271.826 266.423 272.311 266.423V251.458ZM283.694 255.951C280.608 253.032 276.507 251.458 272.311 251.458V266.423C272.796 266.423 273.184 266.609 273.409 266.822L283.694 255.951ZM286.648 256.104C285.985 256.376 285.292 256.45 284.72 256.372C284.166 256.296 283.853 256.101 283.689 255.947L273.414 266.826C278.798 271.912 286.455 272.357 292.326 269.949L286.648 256.104ZM288.597 255.331C287.919 255.588 287.258 255.853 286.645 256.105L292.33 269.948C292.871 269.726 293.394 269.516 293.897 269.326L288.597 255.331ZM290.27 253.858C290.27 253.897 290.266 254.065 290.031 254.363C289.777 254.685 289.31 255.065 288.636 255.316L293.859 269.34C299.815 267.122 305.234 261.496 305.234 253.858H290.27ZM306.587 238.017C297.966 238.017 290.27 244.724 290.27 253.858H305.234C305.234 253.751 305.267 253.584 305.481 253.382C305.702 253.172 306.075 252.982 306.587 252.982V238.017ZM316.751 238.017H306.587V252.982H316.751V238.017ZM334.793 311.366C334.793 322.859 324.829 332.865 311.665 332.865V347.83C332.313 347.83 349.758 331.884 349.758 311.366H334.793ZM311.665 289.866C324.829 289.866 334.793 299.872 334.793 311.366H349.758C349.758 290.847 332.313 274.902 311.665 274.902V289.866ZM288.538 311.366C288.538 299.872 298.502 289.866 311.665 289.866V274.902C291.018 274.902 273.573 290.847 273.573 311.366H288.538ZM311.665 332.865C298.502 332.865 288.538 322.859 288.538 311.366H273.573C273.573 331.884 291.018 347.83 311.665 347.83V332.865Z" fill="#FEA110"/>
<path d="M262.579 362.629H167.465C164.999 362.629 163 360.63 163 358.164V138.465C163 135.999 164.999 134 167.465 134H279.538C280.69 134 281.798 134.445 282.629 135.243L313.004 164.386C313.881 165.228 314.377 166.392 314.377 167.608V238.491" stroke="#FEA110" stroke-width="11.6101"/>
<path d="M188.899 175.975H261.686" stroke="#FEA110" stroke-width="11.6101" stroke-linecap="round"/>
<path d="M188.899 244.296H222.837" stroke="#FEA110" stroke-width="11.6101" stroke-linecap="round"/>
<path d="M188.899 274.66H241.591" stroke="#FEA110" stroke-width="11.6101" stroke-linecap="round"/>
<path d="M188.899 206.786H294.283" stroke="#FEA110" stroke-width="11.6101" stroke-linecap="round"/>
<path d="M315.271 169.277H284.906C282.44 169.277 280.44 167.278 280.44 164.811V135.786" stroke="#FEA110" stroke-width="11.6101"/>
</svg>
