<svg width="512" height="512" viewBox="0 0 512 512" fill="none" xmlns="http://www.w3.org/2000/svg">
<circle cx="256" cy="256" r="239.322" stroke="#FEA110" stroke-width="33.355"/>
<path d="M367 390.01C293 390.01 219 390.01 145 390.01C140.58 387.58 135.3 385.98 131.97 382.5C127.8 378.14 125.25 372.24 122 367.01C122 311.01 122 255.01 122 199.01C127.22 181.95 138.9 174.31 156.52 175.27C157.27 175.31 158.04 175 159.07 174.81C159.07 160.91 159.25 147.29 158.97 133.67C158.87 128.78 160.03 124.92 163.99 122.02C207.66 122.02 251.32 122.02 294.99 122.02C296.66 123.37 298.47 124.59 299.98 126.1C315.29 141.37 330.52 156.73 345.85 171.98C349.75 175.86 353.98 179.42 352.95 185.96C356.12 185.96 358.6 185.93 361.08 185.96C371.73 186.09 379.99 190.66 385.6 199.67C387.41 202.57 388.54 205.89 389.98 209.02C389.98 261.69 389.98 314.35 389.98 367.02C387.55 371.44 385.95 376.73 382.47 380.05C378.14 384.21 372.23 386.76 367 390.01ZM255.47 374.18C289.95 374.18 324.44 374.19 358.92 374.17C369.59 374.16 374.15 369.62 374.15 358.98C374.17 322.16 374.17 285.35 374.15 248.53C374.15 237.62 369.55 233.02 358.67 233.02C325.35 233.01 292.03 232.94 258.72 233.09C253.35 233.12 250.03 231.2 247.75 226.34C243.66 217.6 238.98 209.14 234.9 200.4C231.75 193.66 226.74 190.95 219.42 191.02C197.6 191.21 175.77 191.08 153.95 191.09C142.37 191.09 137.83 195.57 137.83 207.01C137.82 257.49 137.82 307.96 137.83 358.44C137.83 369.83 142.16 374.18 153.51 374.18C187.51 374.19 221.49 374.18 255.47 374.18ZM284.83 138.19C247.76 138.19 211.53 138.19 175.2 138.19C175.2 150.62 175.2 162.7 175.2 175.32C177.25 175.32 179.04 175.32 180.82 175.32C193.98 175.32 207.14 175.32 220.31 175.32C233.17 175.32 242.66 180.79 248.42 192.47C251.81 199.34 255.52 206.05 258.64 213.03C260.1 216.3 261.95 217.28 265.42 217.26C287.74 217.11 310.07 217.19 332.4 217.17C333.84 217.17 335.28 216.98 336.74 216.87C336.74 207.79 336.74 199.06 336.74 190.43C336.1 190.25 335.79 190.08 335.48 190.08C325.48 190.05 315.49 190.04 305.49 190.01C291.92 189.98 284.87 182.94 284.84 169.37C284.82 159.08 284.83 148.79 284.83 138.19ZM324.28 174.29C316.33 166.25 308.63 158.46 300.57 150.31C300.57 157.43 300.41 164.37 300.74 171.28C300.79 172.34 303.04 174.1 304.34 174.15C310.98 174.45 317.63 174.29 324.28 174.29ZM373.84 219.09C376.61 207.78 368.13 198.45 353.32 202.36C353.32 207.25 353.32 212.12 353.32 216.5C360.43 217.39 367.11 218.24 373.84 219.09Z" fill="#FEA110"/>
<path d="M279.51 327.08C279.51 332.43 279.52 337.22 279.51 342C279.48 351.12 277.36 353.29 268.45 353.31C259.63 353.32 250.81 353.36 241.99 353.29C235.28 353.24 232.69 350.63 232.53 343.91C232.41 338.76 232.39 333.6 232.29 328.45C232.28 328.17 232.01 327.89 231.58 327.08C226.4 327.08 220.95 327.13 215.5 327.07C209.16 327 206.28 324.25 206.21 317.96C206.11 308.31 206.09 298.65 206.22 289C206.3 283.12 209.35 280.22 215.29 280.11C220.76 280.01 226.23 280.09 232.51 280.09C232.51 274.5 232.46 269.26 232.52 264.02C232.6 256.43 235.14 253.97 242.81 253.95C251.96 253.93 261.12 253.9 270.27 253.96C276.61 254 279.34 256.68 279.48 263.08C279.6 268.54 279.51 274.01 279.51 280.09C285.4 280.09 290.85 280.04 296.29 280.1C302.78 280.18 305.76 283.09 305.82 289.58C305.91 298.9 305.9 308.22 305.82 317.54C305.76 324.35 302.93 327.03 295.94 327.08C290.65 327.11 285.37 327.08 279.51 327.08ZM222.21 311.04C223 311.25 223.32 311.4 223.65 311.41C228.65 311.46 233.65 311.43 238.64 311.53C245.41 311.67 247.99 314.27 248.06 320.97C248.11 326.4 248.07 331.83 248.07 337.38C253.67 337.38 258.58 337.38 263.93 337.38C263.93 331.92 263.91 326.79 263.93 321.66C263.96 313.97 266.35 311.59 274.15 311.52C279.27 311.47 284.38 311.51 289.69 311.51C289.69 306.03 289.69 301.13 289.69 295.84C284.42 295.84 279.45 295.86 274.48 295.84C266.43 295.8 263.95 293.37 263.93 285.46C263.91 280.35 263.93 275.24 263.93 270.04C258.36 270.04 253.45 270.04 248.07 270.04C248.07 273.82 248.07 277.28 248.07 280.75C248.07 294.99 247.23 295.84 233.22 295.84C229.61 295.84 226 295.84 222.21 295.84C222.21 301.22 222.21 305.99 222.21 311.04Z" fill="#FEA110"/>
</svg>
