<svg width="512" height="512" viewBox="0 0 512 512" fill="none" xmlns="http://www.w3.org/2000/svg">
<circle cx="256" cy="256" r="239.322" stroke="#FEA110" stroke-width="33.355"/>
<path d="M254.816 372.76V296.854C254.816 296.058 253.922 295.58 253.235 295.981C240.835 303.208 233.599 296.34 231.144 291.239C230.911 290.755 230.797 290.208 230.763 289.672C225.596 206.772 247.872 185.255 261.142 184.486C262.231 184.423 263.263 184.907 264.101 185.605C287.764 205.33 315.62 194.362 328.006 185.476C328.871 184.855 329.921 184.465 330.984 184.522C366.169 186.415 360.817 278.423 360.346 287.781C360.32 288.289 360.239 288.758 360.07 289.237C356.163 300.331 346.457 299.361 339.988 296.62C338.55 296.011 336.816 297.004 336.816 298.566V372.805C336.816 373.904 336.456 374.989 335.751 375.832C322.424 391.785 307.493 383.277 300.509 375.849C299.71 374.999 299.316 373.862 299.316 372.696V310C299.316 308.067 297.749 306.5 295.816 306.5C293.883 306.5 292.316 308.055 292.316 309.988V372.821C292.316 373.926 291.951 374.99 291.242 375.837C277.539 392.197 262.744 383.428 255.935 375.826C255.183 374.987 254.816 373.887 254.816 372.76Z" stroke="#FEA110" stroke-width="10"/>
<circle cx="295.816" cy="148.5" r="33.5" stroke="#FEA110" stroke-width="10"/>
<path d="M151 402.188V382.656M151 110V128.75M151 128.75H188.5M151 128.75V179.531M151 179.531H176M151 179.531V231.094M151 231.094H188.5M151 231.094V280.312M151 280.312H176M151 280.312V330.312M151 330.312H188.5M151 330.312V382.656M151 382.656H176" stroke="#FEA110" stroke-width="7.8125" stroke-linecap="round"/>
</svg>
