<svg width="526" height="512" viewBox="0 0 526 512" fill="none" xmlns="http://www.w3.org/2000/svg">
<circle cx="256" cy="256" r="239.322" stroke="#FEA110" stroke-width="33.355"/>
<path d="M270.515 379C269.206 378.016 267.76 377.17 266.607 376.024C255.333 364.821 244.108 353.566 232.872 342.323C229.885 339.335 229.863 336.292 232.82 333.323C237.516 328.609 242.186 323.869 246.959 319.233C248.083 318.138 248.453 317.037 248.449 315.517C248.39 293.769 248.416 272.022 248.323 250.278C248.309 247.29 249.34 245.135 251.621 243.275C264.81 232.523 284.487 239.049 288.617 255.613C289.674 259.85 290.595 264.12 291.589 268.372C291.697 268.827 291.867 269.271 292.137 270.132C293.956 268.221 295.527 266.494 297.176 264.845C313.94 248.067 330.703 231.285 347.489 214.532C353.423 208.609 361.539 207.311 368.479 211.071C378.51 216.506 380.817 229.869 372.982 238.195C367.625 243.889 361.968 249.309 356.437 254.84C355.915 255.362 355.339 255.827 354.566 256.511C358.459 258.56 361.439 261.196 363.28 264.956C365.107 268.683 365.388 272.613 364.656 276.714C368.12 277.808 371.085 279.483 373.367 282.197C376.709 286.171 378.177 290.734 377.441 295.914C377.264 297.16 377.401 297.814 378.805 298.328C390.437 302.602 394.016 316.977 385.779 326.235C383.775 328.487 381.56 330.554 379.427 332.687C366.623 345.499 353.786 358.276 341.026 371.128C337.037 375.144 332.485 377.931 326.821 378.737C326.655 378.76 326.507 378.904 326.348 378.993C307.736 379 289.123 379 270.515 379ZM244.094 337.701C244.36 338.067 244.449 338.23 244.578 338.359C254.158 347.946 263.726 357.544 273.358 367.08C273.909 367.627 274.981 367.875 275.809 367.878C291.209 367.923 306.612 367.856 322.011 367.949C326.418 367.975 329.982 366.544 333.07 363.405C340.627 355.718 348.295 348.135 355.912 340.511C356.366 340.056 356.792 339.564 357.309 339.006C350.887 335.734 347.545 330.617 346.942 323.78C336.97 322.427 331.395 316.841 330.078 306.95C329.406 306.832 328.747 306.703 328.082 306.603C324.096 305.996 320.735 304.192 318.022 301.238C311.496 294.143 311.884 283.761 318.979 276.647C333.816 261.773 348.683 246.935 363.536 232.076C364.146 231.466 364.774 230.863 365.284 230.175C367.983 226.53 366.194 221.494 361.809 220.315C359.032 219.568 356.94 220.71 355.032 222.622C336.009 241.67 316.968 260.704 297.934 279.742C297.516 280.159 297.135 280.614 296.743 281.039C304.53 289.066 307.891 298.779 307.092 309.061C306.427 317.613 303.025 324.986 296.98 331.068C293.882 334.185 288.842 332.868 287.692 328.72C287.053 326.417 287.903 324.557 289.493 322.856C298.496 313.21 298.363 298.79 289.219 289.296C288.11 288.142 287.008 286.97 285.818 285.905C284.276 284.53 283.489 282.836 283.045 280.836C281.388 273.39 279.695 265.954 277.894 258.541C276.068 251.014 268.455 247.161 261.523 250.1C260.077 250.714 259.397 251.461 259.404 253.224C259.504 274.972 259.467 296.716 259.552 318.464C259.563 321.122 258.787 323.17 256.86 325.015C252.553 329.145 248.382 333.423 244.094 337.701ZM324.414 288.538C324.592 292.028 325.76 294.073 328.252 295.185C330.907 296.369 333.351 295.81 335.373 293.81C340.934 288.319 346.469 282.799 351.952 277.231C354.629 274.514 354.618 270.68 352.081 268.139C349.549 265.603 345.711 265.618 342.993 268.306C337.436 273.8 331.879 279.298 326.451 284.922C325.375 286.035 324.869 287.706 324.414 288.538ZM359.509 287.244C358.792 287.573 357.206 287.883 356.219 288.822C351.626 293.2 347.116 297.67 342.746 302.269C340.52 304.614 340.856 308.366 343.115 310.666C345.363 312.958 349.16 313.373 351.497 311.162C356.193 306.717 360.755 302.122 365.203 297.43C366.952 295.585 367.026 293.159 365.887 290.852C364.748 288.552 362.807 287.414 359.509 287.244ZM358.052 322.198C358.208 325.692 359.406 327.659 361.802 328.764C364.286 329.914 366.682 329.548 368.649 327.689C371.644 324.856 374.568 321.939 377.408 318.948C379.87 316.356 379.737 312.578 377.275 310.141C374.831 307.727 371 307.645 368.453 310.089C365.525 312.903 362.596 315.735 359.868 318.741C358.862 319.854 358.422 321.473 358.052 322.198Z" fill="#FEA110"/>
<path d="M272.491 372.909H172.686C170.098 372.909 168 370.811 168 368.223V137.686C168 135.098 170.098 133 172.686 133H290.287C291.496 133 292.659 133.467 293.531 134.305L325.404 164.885C326.325 165.769 326.846 166.99 326.846 168.266V242.646" stroke="#FEA110" stroke-width="12.1829"/>
<path d="M195.177 177.046H271.554" stroke="#FEA110" stroke-width="12.1829" stroke-linecap="round"/>
<path d="M195.177 248.737H230.789" stroke="#FEA110" stroke-width="12.1829" stroke-linecap="round"/>
<path d="M195.177 280.6H250.469" stroke="#FEA110" stroke-width="12.1829" stroke-linecap="round"/>
<path d="M195.177 209.377H305.76" stroke="#FEA110" stroke-width="12.1829" stroke-linecap="round"/>
<path d="M327.783 170.017H295.92C293.332 170.017 291.234 167.919 291.234 165.331V134.874" stroke="#FEA110" stroke-width="12.1829"/>
</svg>
