<svg width="98" height="98" viewBox="0 0 98 98" fill="none" xmlns="http://www.w3.org/2000/svg">
<path d="M82.5603 65.1267V83.6915C82.5603 84.2844 82.3391 84.8749 81.8509 85.2113C79.4642 86.8561 76.6243 85.5648 75.4064 84.6175L63.7964 73.0075C63.1427 72.3537 62.256 71.9865 61.3315 71.9865H34.6307C33.6009 71.9865 32.6003 71.6445 31.7859 71.0141L16.7224 59.3554C14.695 57.7335 14.8433 55.7439 15.2497 54.7205C15.3263 54.5278 15.3987 54.3316 15.4648 54.1351C16.0986 52.2518 18.3821 52.1129 19.8263 52.3339C20.1406 52.382 20.4295 52.5256 20.6811 52.72L30.3339 60.1746C31.1476 60.803 32.1467 61.1439 33.1748 61.1439H56.5157C57.6887 61.1439 58.6395 60.193 58.6395 59.0201C58.6395 57.8471 57.6887 56.8963 56.5157 56.8963H41.2228C39.2976 56.8963 37.7369 55.3356 37.7369 53.4103V52.6695C37.7369 50.7442 39.3001 49.1835 41.2254 49.1835H64.0842C64.8982 49.1835 65.689 49.4684 66.3149 49.9887L81.3025 62.4459C82.0993 63.1082 82.5603 64.0906 82.5603 65.1267Z" stroke="black" stroke-width="3.5"/>
<path d="M53.8602 19.3884V21.1384H55.6102H62.4957C63.4642 21.1384 64.2493 21.9236 64.2493 22.892V29.1073C64.2493 30.0758 63.4642 30.8609 62.4957 30.8609H55.6102H53.8602V32.6109V39.4964C53.8602 40.4649 53.0751 41.25 52.1066 41.25H45.892C44.9236 41.25 44.1384 40.4649 44.1384 39.4964V32.6109V30.8609H42.3884H35.5036C34.5351 30.8609 33.75 30.0758 33.75 29.1073V22.892C33.75 21.9236 34.5351 21.1384 35.5036 21.1384H42.3884H44.1384V19.3884V12.5036C44.1384 11.5351 44.9236 10.75 45.892 10.75H52.1066C53.0751 10.75 53.8602 11.5351 53.8602 12.5036V19.3884Z" stroke="black" stroke-width="3.5"/>
</svg>
