<svg width="98" height="98" viewBox="0 0 98 98" fill="none" xmlns="http://www.w3.org/2000/svg">
<g clip-path="url(#clip0_1094_11703)">
<path d="M20.8281 88C20.3153 87.7052 20.0281 87.3112 20.0311 86.6705C20.0476 81.5076 20.0416 76.3462 20.0371 71.1833C20.0371 70.6419 20.1514 70.1245 20.7093 69.9757C21.0492 69.8839 21.5981 69.9065 21.7997 70.1185C22.0869 70.4208 22.2704 70.9442 22.2734 71.3743C22.3095 75.0333 22.2944 78.6923 22.2944 82.3498C22.2944 83.4492 22.2944 84.5485 22.2944 85.6945C39.7758 85.6945 57.2016 85.6945 74.7071 85.6945C74.7071 85.323 74.7071 84.9786 74.7071 84.6357C74.7071 65.2143 74.7071 45.7929 74.7101 26.3714C74.7101 26.0225 74.7011 25.6616 74.7823 25.3277C74.9266 24.7352 75.3553 24.4584 75.9598 24.5141C76.5328 24.5652 76.8652 24.9051 76.9419 25.4736C76.972 25.6961 76.9629 25.9232 76.9629 26.1488C76.9644 46.2215 76.9614 66.2941 76.9735 86.3682C76.9735 87.0766 76.8547 87.6571 76.1749 87.9985C57.7265 88 39.2781 88 20.8281 88Z" fill="black"/>
<path d="M76.1749 11.0002C76.7749 11.3145 76.981 11.8048 76.9749 12.48C76.9479 15.0607 76.9704 17.6429 76.9569 20.2236C76.9524 20.9891 76.4952 21.4704 75.8455 21.4689C75.2064 21.4673 74.7597 20.9786 74.7116 20.2206C74.701 20.0462 74.7071 19.8702 74.7071 19.6942C74.7071 17.8399 74.7071 15.9856 74.7071 14.1313C74.7071 13.8621 74.7071 13.5944 74.7071 13.2921C57.2151 13.2921 39.8074 13.2921 22.2944 13.2921C22.2944 13.623 22.2944 13.9373 22.2944 14.2516C22.2944 31.1675 22.2944 48.085 22.2914 65.0009C22.2914 65.3483 22.2899 65.7108 22.1997 66.0416C22.0493 66.5966 21.6267 66.8507 21.0582 66.8041C20.4867 66.7575 20.1438 66.4251 20.0626 65.8582C20.0265 65.6115 20.0386 65.3574 20.0386 65.1077C20.0371 47.6398 20.0401 30.172 20.0295 12.7041C20.0295 11.9837 20.0987 11.3521 20.8266 10.9987C39.278 11.0002 57.7265 11.0002 76.1749 11.0002Z" fill="black"/>
<path d="M69.2539 55.842C67.5334 55.842 65.9152 55.842 64.2564 55.842C64.2564 64.1842 64.2564 72.4887 64.2564 80.8444C65.9137 80.8444 67.5274 80.8444 69.2539 80.8444C69.2539 80.5467 69.2539 80.2579 69.2539 79.9692C69.2539 74.8078 69.2539 69.6479 69.2539 64.4865C69.2539 64.2368 69.2313 63.9796 69.2765 63.736C69.3847 63.1405 69.7773 62.8006 70.3683 62.79C70.9262 62.7795 71.3188 63.0968 71.4631 63.6443C71.5248 63.8804 71.5083 64.1406 71.5083 64.3902C71.5098 70.1035 71.5113 75.8154 71.5098 81.5272C71.5098 82.792 71.1639 83.1469 69.9156 83.1484C67.7861 83.1529 65.6566 83.1529 63.527 83.1484C62.3179 83.1454 61.96 82.7905 61.96 81.5738C61.957 72.7549 61.957 63.9375 61.96 55.1186C61.96 53.8824 62.2938 53.55 63.509 53.5485C65.7137 53.547 67.9184 53.544 70.1232 53.55C71.1022 53.5531 71.4992 53.9411 71.5083 54.9036C71.5188 56.0811 71.5188 57.2587 71.5083 58.4362C71.5007 59.2679 71.0796 59.7446 70.3894 59.7492C69.6961 59.7537 69.2705 59.2754 69.2584 58.4528C69.2464 57.6046 69.2539 56.7564 69.2539 55.842Z" fill="black"/>
<path d="M33.6008 25.7383C38.4163 25.7338 42.3445 29.668 42.334 34.485C42.325 39.2584 38.3998 43.1776 33.6234 43.1821C28.8154 43.1866 24.8812 39.2464 24.8887 34.4324C24.8977 29.6635 28.8259 25.7428 33.6008 25.7383ZM32.4849 28.1957C29.5538 28.3145 26.9957 31.5584 27.1566 34.8384C27.328 38.341 30.405 41.0856 33.9738 40.9172C36.9244 40.7788 39.9864 38.0207 39.845 35.5783C37.9712 35.5783 36.0958 35.5798 34.2189 35.5783C32.7376 35.5768 32.4879 35.3212 32.4849 33.8128C32.4834 32.736 32.4849 31.6592 32.4849 30.5824C32.4849 29.7868 32.4849 28.9927 32.4849 28.1957ZM39.9172 33.2804C39.5277 30.6801 37.0162 28.2212 34.8054 28.2107C34.8054 29.8936 34.8054 31.5765 34.8054 33.2804C36.5364 33.2804 38.2028 33.2804 39.9172 33.2804Z" fill="black"/>
<path d="M48.5587 15.8501C52.4147 15.8501 56.2722 15.8486 60.1282 15.8501C61.4517 15.8501 61.7675 16.1674 61.7705 17.4849C61.7735 18.8624 61.7795 20.24 61.7675 21.6161C61.7599 22.5846 61.3719 22.9862 60.3899 22.9877C52.4763 22.9952 44.5628 22.9952 36.6492 22.9892C35.6176 22.9877 35.2431 22.5997 35.2356 21.5785C35.2265 20.1513 35.2265 18.7241 35.2356 17.2969C35.2416 16.2276 35.61 15.8546 36.6883 15.8531C40.6451 15.8471 44.6019 15.8501 48.5587 15.8501ZM37.5365 20.6852C44.8936 20.6852 52.1725 20.6852 59.468 20.6852C59.468 19.8174 59.468 19.0023 59.468 18.1466C52.141 18.1466 44.8621 18.1466 37.5365 18.1466C37.5365 19.0023 37.5365 19.8174 37.5365 20.6852Z" fill="black"/>
<path d="M49.8174 71.3503C49.8174 67.9454 49.8144 64.5391 49.8189 61.1342C49.8204 59.9627 50.1738 59.6063 51.3379 59.6048C53.4915 59.6003 55.6451 59.6003 57.7986 59.6048C58.9807 59.6063 59.3432 59.9597 59.3432 61.1102C59.3462 67.9454 59.3447 74.7807 59.3432 81.6174C59.3432 82.7845 58.9867 83.1454 57.8227 83.1484C55.6691 83.1544 53.5155 83.1544 51.3619 83.1484C50.1573 83.1454 49.8189 82.798 49.8189 81.5663C49.8159 78.1615 49.8174 74.7551 49.8174 71.3503ZM57.0662 61.9087C55.3744 61.9087 53.7607 61.9087 52.1425 61.9087C52.1425 68.2522 52.1425 74.5476 52.1425 80.8294C53.8238 80.8294 55.4345 80.8294 57.0662 80.8294C57.0662 74.5025 57.0662 68.2417 57.0662 61.9087Z" fill="black"/>
<path d="M37.6598 75.8921C37.6598 73.9626 37.6538 72.0345 37.6628 70.105C37.6673 69.126 38.0493 68.744 39.0284 68.741C41.2827 68.7335 43.5371 68.735 45.7914 68.741C46.787 68.744 47.1795 69.111 47.1825 70.078C47.1916 73.9851 47.1916 77.8938 47.1825 81.8009C47.181 82.7333 46.787 83.1379 45.8561 83.1439C43.5762 83.1604 41.2962 83.1589 39.0178 83.1454C38.0478 83.1394 37.6673 82.7348 37.6628 81.7543C37.6553 79.7992 37.6598 77.8456 37.6598 75.8921ZM44.8755 80.8489C44.8755 77.5223 44.8755 74.2859 44.8755 71.039C43.2062 71.039 41.594 71.039 39.9548 71.039C39.9548 74.3235 39.9548 77.5644 39.9548 80.8489C41.6045 80.8489 43.2167 80.8489 44.8755 80.8489Z" fill="black"/>
<path d="M59.7267 25.7384C63.309 25.7384 66.8913 25.7384 70.4721 25.7384C70.6977 25.7384 70.9293 25.7158 71.1474 25.758C71.7339 25.8723 72.0888 26.2422 72.1008 26.8438C72.1129 27.4483 71.7625 27.8213 71.1865 27.9642C70.9955 28.0108 70.7879 27.9928 70.5879 27.9928C63.3481 27.9943 56.1098 27.9943 48.87 27.9928C48.6955 27.9928 48.5136 28.0078 48.3451 27.9717C47.727 27.8364 47.3736 27.4529 47.4007 26.8077C47.4262 26.1986 47.7887 25.8482 48.3797 25.7519C48.5993 25.7159 48.8294 25.7384 49.055 25.7384C52.6132 25.7384 56.17 25.7384 59.7267 25.7384Z" fill="black"/>
<path d="M59.7056 38.1079C56.1248 38.1079 52.5425 38.1125 48.9617 38.1019C48.6203 38.1004 48.1827 38.1155 47.9631 37.9245C47.6834 37.6808 47.4142 37.2161 47.4503 36.8793C47.4848 36.5439 47.8518 36.1724 48.1706 35.9634C48.4082 35.807 48.7978 35.8566 49.1211 35.8566C56.209 35.8521 63.2969 35.8536 70.3833 35.8536C70.5081 35.8536 70.6345 35.8506 70.7593 35.8551C71.6195 35.8852 72.1354 36.3348 72.1098 37.0327C72.0857 37.6974 71.591 38.1049 70.7518 38.1064C67.0687 38.111 63.3871 38.1064 59.7056 38.1079Z" fill="black"/>
<path d="M59.7868 30.8139C63.4188 30.8139 67.0492 30.8169 70.6811 30.8093C71.2105 30.8078 71.6812 30.88 71.9655 31.3944C72.3053 32.0065 72.0241 32.7599 71.3368 32.9675C71.033 33.0592 70.6962 33.0637 70.3743 33.0637C63.2864 33.0682 56.1985 33.0682 49.1121 33.0682C48.9873 33.0682 48.8609 33.0712 48.7361 33.0667C47.8684 33.0336 47.3721 32.596 47.3961 31.8862C47.4187 31.2019 47.8834 30.8169 48.7436 30.8154C52.4252 30.8109 56.1068 30.8139 59.7868 30.8139Z" fill="black"/>
<path d="M30.2426 83.1498C29.1146 83.1498 27.9882 83.1619 26.8603 83.1453C25.8993 83.1303 25.5023 82.7197 25.4962 81.7527C25.4872 80.2999 25.4872 78.8472 25.4962 77.3944C25.5023 76.4334 25.9008 76.0198 26.8738 76.0138C29.1282 75.9988 31.3825 75.9988 33.6384 76.0123C34.6505 76.0183 35.034 76.4153 35.0445 77.4455C35.0581 78.8727 35.0596 80.3014 35.0445 81.7286C35.034 82.7513 34.646 83.1363 33.6264 83.1468C32.4969 83.1589 31.3705 83.1498 30.2426 83.1498ZM32.7375 78.3253C31.0487 78.3253 29.4184 78.3253 27.7987 78.3253C27.7987 79.2006 27.7987 80.0127 27.7987 80.8579C29.459 80.8579 31.0712 80.8579 32.7375 80.8579C32.7375 80.0112 32.7375 79.2006 32.7375 78.3253Z" fill="black"/>
<path d="M38.2494 55.684C35.016 55.684 31.7826 55.684 28.5492 55.6825C28.298 55.6825 28.0424 55.7006 27.7987 55.6555C27.2348 55.5532 26.8302 55.1607 26.9024 54.6283C26.9566 54.2328 27.313 53.8357 27.6273 53.538C27.7852 53.3876 28.1507 53.4312 28.4229 53.4312C34.9649 53.4267 41.5068 53.4267 48.0488 53.4282C48.2489 53.4282 48.4564 53.4086 48.6489 53.4507C49.2625 53.5846 49.6325 53.9606 49.5994 54.6102C49.5678 55.2524 49.1933 55.6254 48.5496 55.6675C48.0503 55.7006 47.548 55.6825 47.0457 55.6825C44.1146 55.6855 41.182 55.684 38.2494 55.684Z" fill="black"/>
<path d="M38.2193 50.637C35.037 50.637 31.8547 50.6385 28.6725 50.6355C28.3973 50.6355 28.119 50.637 27.8483 50.5949C27.2107 50.4941 26.8543 50.0821 26.8798 49.4564C26.9054 48.8323 27.2889 48.4518 27.9356 48.3962C28.1597 48.3766 28.3867 48.3826 28.6108 48.3826C35.025 48.3826 41.4407 48.3811 47.8548 48.3826C48.13 48.3826 48.4098 48.3736 48.679 48.4142C49.2519 48.5 49.5723 48.8654 49.5993 49.4324C49.6294 50.0324 49.3392 50.449 48.7361 50.5738C48.4458 50.634 48.139 50.634 47.8398 50.634C44.6334 50.6385 41.4256 50.637 38.2193 50.637Z" fill="black"/>
<path d="M55.2164 40.9277C57.3219 40.9277 59.4274 40.9247 61.5328 40.9292C62.4803 40.9307 62.9856 41.3353 62.9781 42.0662C62.9721 42.7941 62.4698 43.1821 61.5118 43.1821C57.2768 43.1851 53.0403 43.1851 48.8053 43.1821C47.9074 43.1821 47.4111 42.7851 47.3946 42.0827C47.3781 41.3909 47.8623 40.9368 48.6759 40.9323C50.8551 40.9217 53.0358 40.9277 55.2164 40.9277Z" fill="black"/>
<path d="M33.685 58.5114C35.5138 58.5114 37.3425 58.5069 39.1698 58.5129C39.9909 58.5159 40.4992 58.9415 40.5127 59.6062C40.5263 60.271 40.0119 60.7582 39.2134 60.7612C35.5318 60.7733 31.8502 60.7718 28.1672 60.7612C27.3641 60.7582 26.8528 60.2785 26.8618 59.6122C26.8708 58.946 27.3791 58.5159 28.1973 58.5129C30.029 58.5069 31.8563 58.5114 33.685 58.5114Z" fill="black"/>
</g>
<defs>
<clipPath id="clip0_1094_11703">
<rect width="77" height="77" fill="white" transform="translate(10 11)"/>
</clipPath>
</defs>
</svg>
