<svg width="98" height="98" viewBox="0 0 98 98" fill="none" xmlns="http://www.w3.org/2000/svg">
<path d="M50.3256 60.4479C56.2305 54.5243 62.1248 48.7906 67.8023 42.8535C71.0451 39.4636 71.6631 35.2871 69.833 30.9687C67.9976 26.645 64.5301 24.4136 59.8586 24.1514C57.7957 24.0364 56.0513 25.0023 54.553 26.3053C53.3169 27.3781 52.1931 28.5875 51.0962 29.8049C49.8922 31.1427 49.0387 31.1533 47.832 29.7781C46.925 28.7454 46.018 27.6992 45.0039 26.7735C41.4909 23.5735 38.0368 23.2578 33.6435 25.7621C28.5172 28.6812 26.655 35.5118 29.376 40.6569C29.7934 41.4489 30.267 41.8636 31.2248 41.8154C32.865 41.7352 34.5131 41.7485 36.1559 41.8127C36.9692 41.8422 37.3572 41.5318 37.6087 40.7934C38.01 39.6188 38.4783 38.4656 38.9465 37.3178C39.4067 36.1914 40.0756 35.2469 41.4588 35.3085C42.8501 35.3673 43.4414 36.3974 43.7785 37.5452C44.5678 40.2235 45.2875 42.9231 46.1437 45.9946C46.7805 44.309 47.3825 42.9552 47.7972 41.5452C48.228 40.079 49.0413 39.4663 50.5985 39.5332C52.9931 39.6348 55.3958 39.5519 57.7957 39.5626C59.187 39.568 59.9924 40.1807 59.8934 41.2054C59.773 42.4522 58.9088 42.7438 57.8038 42.7278C55.8934 42.701 53.9804 42.7786 52.0727 42.6957C51.0774 42.6529 50.5557 42.9231 50.2453 43.9184C49.7316 45.5665 49.1457 47.2067 48.4206 48.7719C48.0701 49.5237 47.4521 50.3156 46.7457 50.7009C45.4748 51.3966 44.113 50.519 43.6019 48.7585C42.909 46.3746 42.3177 43.9585 41.6809 41.5586C41.5792 41.1786 41.4615 40.8014 41.2555 40.0924C40.7498 41.3204 40.3164 42.2676 39.9659 43.2442C39.5699 44.3492 38.8769 44.8682 37.6676 44.8415C35.2248 44.7906 32.7793 44.8334 30.3366 44.8227C29.0068 44.8174 27.9847 44.2876 27.2088 43.1478C22.6684 36.4643 24.9105 24.3762 35.9606 21.4251C40.5491 20.1997 44.3404 21.7087 47.6394 24.8605C48.2467 25.441 48.8166 26.0645 49.4988 26.7655C50.0901 26.1661 50.6226 25.5989 51.1845 25.0585C57.1081 19.3729 65.2873 19.8224 70.6036 26.1233C75.3982 31.8035 75.1039 40.1539 69.8009 45.5104C64.1421 51.2227 58.3951 56.8493 52.6721 62.5001C51.0988 64.0519 49.4962 64.0599 47.8587 62.5643C43.9899 59.0272 40.1291 55.4795 36.2736 51.9263C35.1766 50.915 35.0161 50.0695 35.8188 49.323C36.7338 48.4749 37.5605 48.82 38.3819 49.5772C42.0448 52.9457 45.729 56.2901 49.4079 59.6399C49.6647 59.8834 49.9323 60.1081 50.3256 60.4479Z" fill="black"/>
<path fill-rule="evenodd" clip-rule="evenodd" d="M7 16.3471C7 13.394 9.39397 11 12.3471 11H85.6906C88.6437 11 91.0377 13.394 91.0377 16.3471V58.824V68.0273C91.0377 70.9805 88.6437 73.3744 85.6906 73.3744H60.2034C60.2914 73.6473 60.4135 73.9403 60.5718 74.2528C60.9572 75.0136 61.523 75.8224 62.2051 76.6371C63.5697 78.2672 65.3153 79.8214 66.7417 80.9379C67.6545 81.6524 68.2417 82.7512 68.2417 83.9598C68.2417 86.0117 66.5784 87.675 64.5266 87.675H32.9171C31.1151 87.675 29.6544 86.2142 29.6544 84.4123C29.6544 82.8024 30.815 81.6305 31.9152 81.0333C33.3855 80.2352 34.7401 78.6668 35.8631 76.8659C36.6039 75.678 37.2105 74.4432 37.6583 73.3744H12.3471C9.39397 73.3744 7 70.9805 7 68.0273V58.824V16.3471ZM40.0246 73.3744C39.5197 74.7145 38.7403 76.4074 37.7289 78.0294C36.5303 79.9515 34.9289 81.8992 32.9642 82.9657C32.2301 83.3643 31.8532 83.935 31.8532 84.4123C31.8532 84.9999 32.3295 85.4762 32.9171 85.4762H64.5266C65.364 85.4762 66.0429 84.7973 66.0429 83.9598C66.0429 83.476 65.8063 82.9981 65.3864 82.6694C63.8862 81.4951 62.0148 79.8351 60.5191 78.0486C59.7711 77.1551 59.0958 76.2049 58.6103 75.2464C58.3067 74.647 58.0629 74.0164 57.9327 73.3744H40.0246ZM12.3471 13.1988C10.6083 13.1988 9.1988 14.6083 9.1988 16.3471V58.824V68.0273C9.1988 69.7661 10.6083 71.1756 12.3471 71.1756H39.2491H58.9301H85.6906C87.4293 71.1756 88.8389 69.7661 88.8389 68.0273V58.824V16.3471C88.8389 14.6083 87.4293 13.1988 85.6906 13.1988H12.3471Z" fill="black"/>
<path d="M60.2034 73.3744V72.6244H59.1734L59.4896 73.6047L60.2034 73.3744ZM60.5718 74.2528L61.2408 73.9139L61.2408 73.9139L60.5718 74.2528ZM62.2051 76.6371L61.63 77.1186L61.63 77.1186L62.2051 76.6371ZM66.7417 80.9379L66.2794 81.5285L66.2794 81.5285L66.7417 80.9379ZM31.9152 81.0333L31.5574 80.3741L31.5574 80.3741L31.9152 81.0333ZM35.8631 76.8659L36.4995 77.2628L36.4995 77.2628L35.8631 76.8659ZM37.6583 73.3744L38.35 73.6643L38.7857 72.6244H37.6583V73.3744ZM37.7289 78.0294L37.0925 77.6325L37.0925 77.6326L37.7289 78.0294ZM40.0246 73.3744V72.6244H39.5057L39.3228 73.11L40.0246 73.3744ZM32.9642 82.9657L32.6064 82.3066L32.6064 82.3066L32.9642 82.9657ZM65.3864 82.6694L65.8487 82.0788L65.8487 82.0788L65.3864 82.6694ZM60.5191 78.0486L61.0942 77.5672L61.0942 77.5672L60.5191 78.0486ZM58.6103 75.2464L57.9412 75.5854L57.9412 75.5854L58.6103 75.2464ZM57.9327 73.3744L58.6677 73.2253L58.5458 72.6244H57.9327V73.3744ZM12.3471 10.25C8.97976 10.25 6.25 12.9798 6.25 16.3471H7.75C7.75 13.8082 9.80819 11.75 12.3471 11.75V10.25ZM85.6906 10.25H12.3471V11.75H85.6906V10.25ZM91.7877 16.3471C91.7877 12.9798 89.0579 10.25 85.6906 10.25V11.75C88.2295 11.75 90.2877 13.8082 90.2877 16.3471H91.7877ZM91.7877 58.824V16.3471H90.2877V58.824H91.7877ZM91.7877 68.0273V58.824H90.2877V68.0273H91.7877ZM85.6906 74.1244C89.0579 74.1244 91.7877 71.3947 91.7877 68.0273H90.2877C90.2877 70.5662 88.2295 72.6244 85.6906 72.6244V74.1244ZM60.2034 74.1244H85.6906V72.6244H60.2034V74.1244ZM61.2408 73.9139C61.0974 73.6307 60.9913 73.3741 60.9172 73.1442L59.4896 73.6047C59.5915 73.9204 59.7295 74.2498 59.9027 74.5917L61.2408 73.9139ZM62.7801 76.1557C62.1205 75.3678 61.5921 74.6073 61.2408 73.9139L59.9027 74.5917C60.3223 75.42 60.9254 76.277 61.63 77.1186L62.7801 76.1557ZM67.204 80.3474C65.8027 79.2505 64.1001 77.7323 62.7801 76.1557L61.63 77.1186C63.0393 78.802 64.8278 80.3923 66.2794 81.5285L67.204 80.3474ZM68.9917 83.9598C68.9917 82.5036 68.2846 81.1932 67.204 80.3474L66.2794 81.5285C67.0244 82.1117 67.4917 82.9988 67.4917 83.9598H68.9917ZM64.5266 88.425C66.9926 88.425 68.9917 86.4259 68.9917 83.9598H67.4917C67.4917 85.5975 66.1642 86.925 64.5266 86.925V88.425ZM32.9171 88.425H64.5266V86.925H32.9171V88.425ZM28.9044 84.4123C28.9044 86.6284 30.7009 88.425 32.9171 88.425V86.925C31.5293 86.925 30.4044 85.8 30.4044 84.4123H28.9044ZM31.5574 80.3741C30.3357 81.0373 28.9044 82.4134 28.9044 84.4123H30.4044C30.4044 83.1914 31.2943 82.2237 32.273 81.6924L31.5574 80.3741ZM35.2267 76.4691C34.1294 78.2288 32.859 79.6676 31.5574 80.3741L32.273 81.6924C33.912 80.8027 35.3508 79.1049 36.4995 77.2628L35.2267 76.4691ZM36.9665 73.0846C36.5314 74.123 35.9426 75.321 35.2267 76.4691L36.4995 77.2628C37.2651 76.035 37.8895 74.7633 38.35 73.6643L36.9665 73.0846ZM12.3471 74.1244H37.6583V72.6244H12.3471V74.1244ZM6.25 68.0273C6.25 71.3947 8.97976 74.1244 12.3471 74.1244V72.6244C9.80819 72.6244 7.75 70.5662 7.75 68.0273H6.25ZM6.25 58.824V68.0273H7.75V58.824H6.25ZM6.25 16.3471V58.824H7.75V16.3471H6.25ZM38.3653 78.4263C39.4069 76.756 40.207 75.0175 40.7264 73.6389L39.3228 73.11C38.8323 74.4116 38.0738 76.0589 37.0925 77.6325L38.3653 78.4263ZM33.322 83.6249C35.4553 82.4669 37.1409 80.3897 38.3653 78.4263L37.0925 77.6326C35.9197 79.5132 34.4025 81.3316 32.6064 82.3066L33.322 83.6249ZM32.6032 84.4123C32.6032 84.3152 32.7203 83.9515 33.322 83.6249L32.6064 82.3066C31.7398 82.777 31.1032 83.5547 31.1032 84.4123H32.6032ZM32.9171 84.7262C32.7437 84.7262 32.6032 84.5856 32.6032 84.4123H31.1032C31.1032 85.4141 31.9153 86.2262 32.9171 86.2262V84.7262ZM64.5266 84.7262H32.9171V86.2262H64.5266V84.7262ZM65.2929 83.9598C65.2929 84.3831 64.9498 84.7262 64.5266 84.7262V86.2262C65.7782 86.2262 66.7929 85.2115 66.7929 83.9598H65.2929ZM64.9241 83.26C65.1752 83.4565 65.2929 83.7224 65.2929 83.9598H66.7929C66.7929 83.2297 66.4375 82.5397 65.8487 82.0788L64.9241 83.26ZM59.944 78.53C61.4844 80.37 63.3988 82.066 64.9241 83.26L65.8487 82.0788C64.3737 80.9242 62.5452 79.3003 61.0942 77.5672L59.944 78.53ZM57.9412 75.5854C58.4609 76.6113 59.1735 77.6096 59.944 78.53L61.0942 77.5672C60.3686 76.7005 59.7307 75.7986 59.2793 74.9075L57.9412 75.5854ZM57.1976 73.5236C57.3447 74.2482 57.6161 74.9434 57.9412 75.5854L59.2793 74.9075C58.9972 74.3506 58.7812 73.7845 58.6677 73.2253L57.1976 73.5236ZM40.0246 74.1244H57.9327V72.6244H40.0246V74.1244ZM9.9488 16.3471C9.9488 15.0226 11.0226 13.9488 12.3471 13.9488V12.4488C10.1941 12.4488 8.4488 14.1941 8.4488 16.3471H9.9488ZM9.9488 58.824V16.3471H8.4488V58.824H9.9488ZM9.9488 68.0273V58.824H8.4488V68.0273H9.9488ZM12.3471 70.4256C11.0226 70.4256 9.9488 69.3519 9.9488 68.0273H8.4488C8.4488 70.1803 10.1941 71.9256 12.3471 71.9256V70.4256ZM39.2491 70.4256H12.3471V71.9256H39.2491V70.4256ZM58.9301 70.4256H39.2491V71.9256H58.9301V70.4256ZM85.6906 70.4256H58.9301V71.9256H85.6906V70.4256ZM88.0889 68.0273C88.0889 69.3519 87.0151 70.4256 85.6906 70.4256V71.9256C87.8435 71.9256 89.5889 70.1803 89.5889 68.0273H88.0889ZM88.0889 58.824V68.0273H89.5889V58.824H88.0889ZM88.0889 16.3471V58.824H89.5889V16.3471H88.0889ZM85.6906 13.9488C87.0151 13.9488 88.0889 15.0226 88.0889 16.3471H89.5889C89.5889 14.1941 87.8435 12.4488 85.6906 12.4488V13.9488ZM12.3471 13.9488H85.6906V12.4488H12.3471V13.9488Z" fill="black"/>
</svg>
